<?xml version="1.0" encoding="UTF-8"?><svg id="Layer_2" xmlns="http://www.w3.org/2000/svg" xmlns:xlink="http://www.w3.org/1999/xlink" viewBox="0 0 747.87 877.81"><defs><clipPath id="clippath"><rect width="747.87" height="877.81" style="fill:none;"/></clipPath></defs><g id="Layer_1-2"><g id="Group_763"><g style="clip-path:url(#clippath);"><g id="Group_762"><path id="Path_1098" d="m358.06,877.81c-1.26-.15-2.51-.4-3.78-.45-38.11-1.58-75.82-8.42-112.06-20.33-34.55-11.06-67.55-26.48-98.21-45.86-2.56-1.63-5.06-3.36-7.59-5.03-2.37-1.56-2.79-1.53-4.69.64-5.1,5.82-10.19,11.66-15.25,17.51-.58.67-1.15,1.34-1.75,1.98-.77,1.04-2.25,1.26-3.29.49-.04-.03-.08-.06-.12-.09-1.13-.79-2.23-1.58-3.35-2.39-12.87-9.12-25.69-18.3-37.89-28.32-10.91-9.12-20.85-19.35-29.64-30.52-12.52-15.58-24.81-31.33-37.2-47.01-.24-.31-.48-.62-.7-.95-1.37-2.04-1.22-3.02.68-4.44.39-.29.81-.55,1.21-.83l74.03-49.48c.49-.33.97-.68,1.48-.96,1.84-1.06,2.65-.96,4.07.68,1.92,2.22,3.77,4.51,5.66,6.77,12.15,14.61,24.31,29.23,36.47,43.84,3.17,3.82,3.29,3.83,7.07.42,5.6-5.05,11.2-10.1,16.79-15.16.57-.55,1.17-1.05,1.81-1.5,1.01-.72,2.4-.52,3.17.45,1.46,1.45,2.88,2.94,4.38,4.35,38.66,36.81,86.26,62.88,138.09,75.64,66.98,16.76,137.7,9.57,199.94-20.31,31.97-15.06,61.33-35.12,86.98-59.44,2.2-2.09,4.3-4.28,6.46-6.42,2.1-2.08,3.11-2.07,5.01.26,4.88,6,9.73,12.05,14.58,18.07.49.61.98,1.23,1.49,1.82,1.84,2.15,2.81,2.26,4.79.28,12.28-11.69,23.88-24.08,34.73-37.11,2.87-3.59,5.52-7.37,8.15-11.14,2.16-3.09,2.78-3.3,5.81-1.13,18.28,13.17,36.56,26.34,54.84,39.52,4.3,3.09,8.6,6.16,12.86,9.29,2.06,1.52,2.23,2.31.84,4.4-13,19.51-26.36,38.77-43.02,55.38-12.83,12.79-26.16,25.09-39.33,37.55-6.83,6.46-13.78,12.81-20.68,19.2-2.47,2.29-3.34,2.25-5.46-.34-6.5-7.97-13-15.95-19.49-23.93-.5-.61-.98-1.23-1.51-1.81-.76-1.01-2.2-1.22-3.22-.45-.06.05-.12.1-.18.15-.23.17-.46.36-.7.54-28,21.03-58.86,37.95-91.65,50.24-25.13,9.71-51.21,16.77-77.81,21.04-14.21,2.34-28.55,3.81-42.94,4.4-1.15.1-2.3.26-3.44.48l-26.46.03Zm12.16-6.02c16.08.25,32.15-.73,48.07-2.93,22.5-3.18,44.64-8.56,66.09-16.05,38.1-13.43,74.24-31.89,107.46-54.88,17.54-11.85,34.21-24.95,49.87-39.19,2.24-2.06,2.26-2.59.21-4.75-16.04-16.92-32.09-33.83-48.14-50.74-2.36-2.49-2.98-2.47-5.54-.14-32.57,29.74-70.35,53.19-111.46,69.18-29.19,11.56-60.05,18.35-91.4,20.09-26.74,1.39-53.54-.68-79.75-6.17-49.88-10.31-96.73-31.95-136.91-63.26-5.73-4.43-11.1-9.32-16.63-14.01-1.91-1.62-2.37-1.63-4.17.07-.21.2-.42.41-.63.62-14.96,14.83-29.92,29.66-44.87,44.49-2.02,2-4.06,3.98-6.01,6.04-1.24,1.31-1.18,1.92.01,3.27.46.51.96.98,1.48,1.43,7.28,6.25,14.32,12.83,21.91,18.68,73.77,56.92,157.35,86.07,250.41,88.27m-256.94-163.86c-.71-.96-1.22-1.77-1.84-2.49-9.13-10.62-18.26-21.23-27.4-31.84q-2.84-3.3-6.3-.82l-55.56,39.94c-3.53,2.53-3.51,2.52-.96,6.15,10.36,14.77,21.91,28.59,33.63,42.28.25.3.51.6.79.87.66.81,1.86.93,2.67.27.07-.06.13-.12.19-.18.45-.38.85-.81,1.26-1.22l35.64-34.97c5.31-5.21,10.62-10.43,15.92-15.65.67-.66,1.21-1.44,1.95-2.34m574.2,54.25c.79-.46,1.53-1,2.21-1.6,1.33-1.43,2.57-2.96,3.82-4.47,9.73-11.78,19.67-23.38,28.19-36.1.71-1.06,1.41-2.11,2.11-3.17.62-.76.51-1.88-.25-2.51-.04-.03-.08-.06-.13-.09-.52-.45-1.08-.85-1.62-1.26l-55.21-41.41c-.39-.29-.8-.57-1.18-.88-.77-.86-2.09-.93-2.95-.17-.14.13-.26.27-.37.43-.38.45-.77.88-1.16,1.33l-26.26,30.49c-.32.37-.66.73-.95,1.13-1.29,1.72-1.25,2.42.23,4.1.26.29.55.56.82.84,10.94,11.21,21.88,22.43,32.82,33.64,5.75,5.88,11.51,11.76,17.27,17.62.83.75,1.7,1.45,2.6,2.11m-60.69-49.68c-.47.12-.92.32-1.33.57-1.99,2.01-4.01,4.01-5.85,6.15-.34.39-.17,1.5.12,2.09.48.74,1.06,1.41,1.72,1.98,9.11,9.69,18.23,19.38,27.35,29.07,3.2,3.39,3.39,3.13-.17,6.63-.14.14-.28.27-.41.41-1.76,1.87-1.81,2.3-.02,4.1,5.96,5.94,11.95,11.85,17.96,17.73,1.58,1.55,2.13,1.64,3.7.11,3.65-3.53,7.22-7.16,10.73-10.84,1.08-.84,1.27-2.39.43-3.46-.12-.16-.26-.3-.41-.42-.31-.38-.68-.7-1.03-1.05-13.63-13.9-27.26-27.8-40.89-41.71-3.22-3.28-6.43-6.57-9.69-9.81-.69-.59-1.43-1.11-2.22-1.57m-552.47,69.3c1.2-.68,2.35-1.47,3.41-2.35,2.65-2.61,5.17-5.35,7.75-8.03,3.28-3.42,3.98-3.34.07-7.11-2.24-2.16-2.19-2.53-.03-4.74,11.77-12.04,23.54-24.08,35.31-36.11q3.49-3.56-.23-6.65c-3.85-3.2-3.34-3.64-7.47.42-12.61,12.45-25.24,24.88-37.87,37.3-4.18,4.12-8.36,8.25-12.52,12.39-1.68,1.68-1.78,2.23-.45,3.69,2.89,3.2,5.81,6.36,8.84,9.42.98.73,2.05,1.32,3.19,1.77" style="fill:#000000;"/><path id="Path_1099" d="m383.34,0c1.36.15,2.72.37,4.07.43,11.25.5,22.52.74,33.75,1.5,15.04,1,30.02,2.75,44.94,4.98,25.08,3.71,49.89,9.08,74.26,16.05,42.76,11.95,83.82,29.3,122.19,51.62,5.31,3.13,10.47,6.53,15.64,9.89,2.69,1.74,2.83,2.61,1.1,5.24-3.5,5.32-7.06,10.59-10.56,15.91-1.68,2.55-1.47,3.54,1.15,4.87,10.79,5.79,22.25,10.25,34.11,13.28,3.15.73,6.36,1.2,9.45,2.11,11.2,3.08,21.41,9,29.64,17.2,1.73,1.98,3.32,4.08,4.77,6.27v1.18c-13.59,17.2-27.18,34.4-40.76,51.59-5.65,7.15-11.29,14.3-16.94,21.45-.49.62-.97,1.24-1.49,1.81-.75,1.05-2.21,1.3-3.26.56-.05-.03-.09-.07-.14-.1-.73-.5-1.41-1.06-2.11-1.58-8.48-6.66-17.54-12.55-27.06-17.59-5.08-2.53-10.45-4.44-15.99-5.68-5.33-1.26-10.55-2.98-15.58-5.13-7.28-3.13-14.34-6.77-21.42-10.31-2.99-1.49-3.14-2.58-1.17-5.27,3.07-4.19,6.18-8.35,9.26-12.53,2.05-2.8,1.95-3.48-.96-5.34-13.02-8.2-26.58-15.48-40.6-21.8-34.96-15.97-71.77-27.49-109.6-34.3-16.96-3.07-34.07-5.23-51.26-6.46-72.85-5.01-145.92,5.87-214.15,31.89-16.09,6.19-31.69,13.61-46.64,22.2-.51.29-1.02.58-1.52.89-2.77,1.72-2.94,2.46-1.09,5.11,2.92,4.17,5.9,8.31,8.83,12.48,1.7,2.43,1.57,3.31-.8,5.12-11.28,8.85-24.05,15.61-37.71,19.96-4.77,1.47-9.5,3.03-14.24,4.63-10.94,3.68-20.58,10.45-27.77,19.48-1.3,1.6-2.58,3.21-3.82,4.84-2.66,3.51-3.48,3.54-6.43.11-3.01-3.49-6.01-6.98-9-10.48-17.91-20.91-35.82-41.81-53.74-62.72-.21-.19-.45-.36-.71-.49v-.58c.63-.74,1.27-1.47,1.87-2.23,5.43-7.22,12.21-13.33,19.96-17.98,5.93-3.5,12.64-5.45,19.52-5.69,7.44-.48,14.74-2.31,21.53-5.4,7.48-3.19,14.59-7.19,21.21-11.92.24-.17.49-.33.72-.51,1.96-1.55,2.12-2.39.6-4.41-3.66-4.84-7.37-9.65-11.07-14.46-.48-.62-.99-1.22-1.41-1.88-.92-.96-.89-2.48.07-3.4.16-.16.34-.29.54-.39.68-.54,1.45-1,2.19-1.47,21.36-13.5,43.82-25.18,67.14-34.92,38.84-16.52,79.36-28.78,120.84-36.58,19.54-3.7,39.2-6.45,59-8.23,14.74-1.31,29.49-2.15,44.28-2.39.76-.08,1.51-.22,2.24-.43h14.11Zm-7.59,6.59c-17.32.17-35.03.95-52.69,2.68-19.3,1.88-38.49,4.73-57.5,8.55-46.01,9.25-90.86,23.58-133.71,42.72-16.68,7.33-32.93,15.58-48.7,24.72-2.83,1.66-2.95,2.22-1.03,4.71,16.22,21.02,32.45,42.03,48.69,63.04,1.65,2.13,2.04,2.2,4.37.81,17.06-10.03,34.94-18.59,53.45-25.61,54.13-20.84,111.4-32.34,169.38-34.01,29.98-1.08,59.99.6,89.66,5.03,30.82,4.57,61.11,12.16,90.44,22.66,26.57,9.25,52.04,21.38,75.96,36.19,2.26,1.44,2.67,1.32,4.51-1.13,16.63-22.19,33.25-44.38,49.87-66.57.41-.55.83-1.09,1.2-1.67.59-.75.46-1.83-.29-2.42-.07-.05-.14-.1-.21-.14-.72-.51-1.47-.98-2.24-1.4-8.35-4.53-16.57-9.31-25.07-13.54-63.34-31.75-131.7-52.32-202.05-60.78-21.25-2.47-42.63-3.76-64.03-3.85M68.46,123.35c-.53.26-.95.51-1.39.69-2.48,1.15-5.03,2.13-7.64,2.94-5.41,1.36-10.88,2.44-16.35,3.5-10.21,1.74-19.69,6.4-27.31,13.41-1.76,1.7-3.4,3.53-4.91,5.46-1.36,1.69-1.26,2.06.1,3.85.23.31.49.61.74.91l52.36,63.88c.43.53.85,1.08,1.33,1.58.55.77,1.62.95,2.39.4.16-.11.29-.25.4-.4.45-.5.84-1.08,1.26-1.62,3.58-4.67,7.72-8.88,12.33-12.54,4.54-3.6,9.82-6.15,15.47-7.45,7.83-1.82,15.43-4.5,22.66-8,4.37-2.08,4.41-2.26,1.25-5.95-16.49-19.3-32.97-38.59-49.46-57.87-.55-.69-1.13-1.35-1.76-1.97-.46-.33-.96-.61-1.48-.82m673.16,26.65c-.31-.67-.68-1.3-1.11-1.9-1.08-1.27-2.22-2.48-3.42-3.62-7.94-7.07-17.63-11.89-28.06-13.95-7.86-1.64-15.54-4.01-22.96-7.08-2.22-.96-2.37-.91-4.14,1.26-16.64,20.29-33.28,40.58-49.9,60.89-2.04,2.49-1.93,3.35.96,4.57,6.56,2.79,13.11,5.7,19.85,8.02,6.88,2.3,13.35,5.66,19.19,9.97,3.91,2.94,7.65,6.11,11.41,9.23,2.34,1.94,2.75,1.96,4.7-.39.25-.3.5-.6.74-.91l27.92-34.85c7.72-9.63,15.43-19.25,23.14-28.89.6-.74,1.11-1.56,1.68-2.38m-118.08,35.47c1.03-1.02,1.98-1.81,2.74-2.74,16.17-19.79,32.33-39.59,48.47-59.4.5-.61,1-1.21,1.46-1.84.67-.67.67-1.75,0-2.42-.14-.14-.3-.25-.47-.34-1.82-1.15-3.67-2.25-5.55-3.31-.89-.54-2.04-.28-2.61.59-.31.38-.62.76-.92,1.14-16.25,20.1-32.5,40.21-48.74,60.31-.56.54-1.03,1.18-1.38,1.88-.2.63-.19,1.81.2,2.08,2.09,1.41,4.32,2.6,6.79,4.04m-487.22-5.25c-.55-.8-1.04-1.63-1.64-2.37-16.24-20.12-32.48-40.23-48.73-60.33q-2.23-2.76-5.46-.97c-.26.14-.51.29-.77.42q-4.18,2.14-1.3,5.77l46.42,58.42q3.75,4.72,8.98,1.62c.6-.33,1.16-.73,1.67-1.19.34-.43.62-.89.84-1.39" style="fill:#000000;"/><path id="Path_1100" d="m588.97,186.58c3.48,22.73,25.34,43.11,44.2,46.03v2.8c0,93.97-.01,187.95-.04,281.92.38,25.68-5.31,51.09-16.59,74.16-5.66,11.3-12.16,22.17-19.43,32.51-9.18,13.06-18.1,26.35-28.08,38.8-24.83,31-56.32,53.32-92.83,68.65-21.44,8.95-44.01,14.92-67.08,17.73-19.77,2.29-39.7,2.7-59.55,1.22-17.9-1.08-35.66-3.79-53.06-8.09-33.87-8.28-65.03-25.16-90.47-49-21.28-19.74-40.68-41.4-57.97-64.72-11.93-15.85-20.95-33.69-26.65-52.69-4.13-14.33-6.2-29.17-6.14-44.08-.03-98.28-.03-196.57-.01-294.85v-3.15c12.17-1.6,23.49-7.15,32.21-15.79,8.97-8.62,15.51-18.64,17.03-31.44h424.43Zm-465.21,54.62v3.18c0,94.85,0,189.71.02,284.56-.06,14.71,1.92,29.36,5.88,43.53,5.34,18.5,14.19,35.8,26.08,50.95,18.56,24.08,39.46,46.25,62.4,66.2,23.94,20.9,52.42,35.94,83.19,43.92,17.65,4.55,35.73,7.25,53.94,8.06,23.59,1.34,47.26-.26,70.47-4.75,46.81-9.14,89.59-32.67,122.38-67.31,20.16-21.43,37.84-45.06,52.72-70.44,8.79-14.54,14.9-30.54,18.03-47.23,2.59-14.27,3.85-28.76,3.74-43.27.04-88.19.05-176.38.02-264.57v-2.84l-3.27-1.29c-8.6-3.34-16.63-7.98-23.82-13.76-6.09-4.86-10.6-11.43-12.93-18.87-.86-2.68-1.45-5.45-2.22-8.44l-407.27-.65c-.52,1.17-.96,2.15-1.38,3.14-2.81,6.79-6.35,13.26-10.57,19.28-4.13,6.02-9.85,10.78-16.52,13.75-4.38,1.91-8.95,3.42-13.48,4.96-2.3.78-4.72,1.22-7.42,1.9" style="fill:#000000;"/><path id="Path_1101" d="m437,802.43c2.78-.76,5.38-1.63,8.05-2.17,3.72-1.19,7.71.85,8.9,4.58.08.24.14.48.19.72,1.74,3.88,1.48,8.37-.7,12.03,3.32.56,5.99,3.04,6.8,6.3,1.4,4.07,2.16,8.23-.08,12.22-.79,1.35-1.85,2.52-3.12,3.44-3.02,2.2-6.66,2.49-10.23,3.1l-9.81-40.21m11.89,34.71c4.19.19,7.92-1.65,8.94-4.25.89-3.47-.05-7.16-2.49-9.79-2.34-2.04-6.16-2.07-10.08.05l3.62,13.98m-4.68-18.47c1.73-.51,3.44-1.11,5.11-1.79,2.15-.97,3.31-3.32,2.77-5.62-.4-2.75-1.02-5.46-4-6.66-.64-.26-1.33-.33-2-.2-1.67.38-3.31.94-5.14,1.48l3.27,12.8" style="fill:#000000;"/><path id="Path_1102" d="m558.88,747.58l2.65-2.11,28.35,16.97.28-.23-18.4-24.21,2.41-1.92,24.75,33.2-1.94,1.58-29.93-17.63c-.07.06-.17.11-.21.19-.03.08-.03.17,0,.26.01.1.05.19.1.27,6.31,8.24,12.61,16.48,19.1,24.96l-2.43,1.93-24.74-33.26" style="fill:#000000;"/><path id="Path_1103" d="m369.23,827.14c.18,4.31-.41,8.61-1.75,12.71-.99,3.29-2.8,6.29-5.26,8.69-2.84,3.22-7.76,3.53-10.98.69-.49-.43-.92-.92-1.29-1.46-2.23-2.76-3.65-6.08-4.1-9.59-.94-6.21-.53-12.55,1.2-18.58.9-3.32,2.61-6.37,4.97-8.87,4.27-4.45,9.61-4.12,13.28.83,2.34,3.28,3.7,7.17,3.91,11.2.12,1.46.02,2.94.02,4.4m-3.39.45c-.06-1.36-.05-2.74-.2-4.1-.21-3.14-1.3-6.15-3.15-8.7-2.77-3.59-6.27-3.73-8.99-.14-1.29,1.71-2.3,3.62-2.98,5.66-1.71,5.43-2.09,11.19-1.11,16.79.36,2.94,1.67,5.68,3.74,7.8,1.6,2.03,4.54,2.39,6.57.79.32-.25.61-.55.86-.87,1.38-1.63,2.5-3.47,3.31-5.45,1.42-3.75,2.08-7.75,1.95-11.77" style="fill:#000000;"/><path id="Path_1104" d="m340.48,821.94c-.06,5.19-1.03,10.33-2.87,15.19-1.1,2.94-2.82,5.61-5.04,7.84-5.16,5.08-10.95,4.17-14.38-2.24-1.38-2.6-2.17-5.48-2.33-8.42-.45-6.76.72-13.54,3.42-19.75,1.16-2.71,2.92-5.12,5.14-7.06,4.67-4.04,9.88-3.23,13.12,2.06,2.18,3.75,3.2,8.06,2.93,12.39m-3.66.73c0-.88.07-1.77-.01-2.64-.15-2.75-1.01-5.42-2.49-7.75-2.34-3.45-5.79-3.86-8.65-.87-1.3,1.33-2.36,2.87-3.15,4.56-2.77,5.89-3.72,12.47-2.75,18.9.29,1.83.89,3.6,1.77,5.24,2.45,4.53,6.38,4.95,9.61,1,1.39-1.76,2.53-3.71,3.37-5.79,1.54-4.03,2.32-8.32,2.29-12.64" style="fill:#000000;"/><path id="Path_1105" d="m490.8,811.06l6.68,16.19-3.13,1.43-15.29-38.16c3.11-2.08,6.58-3.56,10.24-4.36,2.82-.27,5.53,1.19,6.84,3.7,2.8,4.74,4.2,9.7,1.43,15.17,2.94,1.21,5.4,3.34,7.01,6.08,2.4,3.32,4.77,6.65,7.4,10.33l-3.49,1.49c-1.51-2.22-2.89-4.32-4.36-6.37-1.31-1.83-2.67-3.62-4.07-5.37-1.39-2.04-4.11-2.68-6.27-1.49-.88.4-1.77.79-3,1.36m-7.44-18.15l5.91,14.19c1.68-.86,3.04-1.42,4.25-2.21,1.64-.98,2.64-2.75,2.62-4.65.01-3.07-1.23-6.01-3.43-8.15-1.11-1.17-2.78-1.63-4.33-1.19-1.71.58-3.38,1.25-5.02,2.01" style="fill:#000000;"/><path id="Path_1106" d="m501.01,780.99c2.18-1.15,4.27-2.41,6.49-3.39,3.62-1.74,7.91-1.31,11.12,1.1.74.48,1.43,1.03,2.07,1.64,7.28,7.04,11.03,16.97,10.23,27.07-.14,3.83-2.54,7.22-6.11,8.62-1.78.76-3.59,1.46-5.54,2.25l-18.25-37.29m4.82,2.93l14.41,28.77c.66-.05,1.31-.16,1.95-.31,4.14-1.4,6.2-5.07,5.62-10.12-.58-5.59-2.8-10.89-6.37-15.23-1.56-1.87-3.43-3.47-5.53-4.72-3.32-1.89-7.51-1.22-10.09,1.61" style="fill:#000000;"/><path id="Path_1107" d="m219.41,794.59l-10.36-5.1-8.55,17.71-3.21-1.54,18.33-37.24,3.14,1.58-7.92,15.75,10.43,5.14,7.63-15.88,3.17,1.5-18.31,37.28-3.14-1.6,8.8-17.58" style="fill:#000000;"/><path id="Path_1108" d="m163.11,735.63l2.87,2.04-10.28,14.35,9.5,6.68,10.02-14.53,2.87,2.01-23.81,33.94-2.89-2.01,11.42-16.07-9.44-6.62-11.2,16.17-2.94-2,23.88-33.97" style="fill:#000000;"/><path id="Path_1109" d="m313.9,803.18l-8.92,40.45-3.42-.77,4.36-19.15-11.26-2.49c-1.39,6.48-2.72,12.67-4.11,19.17l-3.46-.71,8.94-40.46,3.41.77-3.93,17.12,11.12,2.56c1.8-5.6,2.33-11.36,3.93-17.2l3.34.72" style="fill:#000000;"/><path id="Path_1110" d="m440.05,844.19l-3.94.71-4.74-12.74-10.86,1.69c-.53,4.54-.73,9.1-.61,13.67l-3.91.5c1.26-14.33,2.49-28.31,3.72-42.45l4.11-.72c5.02,13.31,11.21,25.93,16.21,39.35m-17.45-33.38l-.59.08c-.45,6.14-1.1,12.26-1.36,18.63,3.03-.33,6.03-.92,8.97-1.77l-7.01-16.95" style="fill:#000000;"/><path id="Path_1111" d="m208.65,765.2l-3.26,4.6c-.64-1-1.36-1.95-2.16-2.83-2.42-2.49-6.26-2.94-9.19-1.07-1.62.91-3.1,2.05-4.39,3.38-4.12,4.12-6.8,9.45-7.65,15.21-.26,2.03-.17,4.08.28,6.08.73,3.23,2.82,4.9,6.5,5.73l7.01-12.9,2.95,1.68-8.8,15.39c-6.14.62-11.64-3.81-12.34-9.95-.21-2.43-.04-4.88.52-7.26,1.88-8.41,6.99-15.75,14.23-20.43,2.81-2.05,6.37-2.79,9.76-2.04,2.66.58,4.99,2.16,6.52,4.41" style="fill:#000000;"/><path id="Path_1112" d="m574.79,781.21l2.46,4.07-12.99,8.46-22.67-34.82,12.18-7.92,2.46,4-9.56,5.91,7.31,11.1,7.49-5.23,2.57,3.83-7.84,4.89,8.49,12.72,10.09-7" style="fill:#000000;"/><path id="Path_1113" d="m555.56,793.59l2.26,4.2-13.47,7.73-20.66-36.02c3.99-2.42,8.13-4.71,12.56-7.24l2.29,4.07-9.91,5.43,6.68,11.45,7.75-4.76,2.35,3.88-8.05,4.57,7.71,13.11,10.48-6.42" style="fill:#000000;"/><path id="Path_1114" d="m476.55,809.42l1.42,4.3c-1.55.45-3.02.88-4.47,1.33-1.37.43-2.74.89-4.33,1.41l4.83,14.46,11.52-4.1,1.43,4.5-14.81,4.8-12.72-39.55,13.75-4.45,1.44,4.47-10.83,3.22,4.15,12.59,8.63-2.99" style="fill:#000000;"/><path id="Path_1115" d="m240.23,824.5l2.18-4.18c.82.66,1.53,1.24,2.25,1.81,1.74,1.46,3.92,2.29,6.19,2.35,1.81.1,3.51-.85,4.36-2.45,1.6-2.43,1.79-5.52.5-8.13-.99-1.91-2.1-3.75-3.32-5.53-3.74-5.63-2.96-11.14.51-16.48,2.06-3.84,6.85-5.29,10.69-3.23,1.58.65,3.04,1.58,4.68,2.47l-2.15,4.56c-1.54-.98-2.8-1.89-4.16-2.62-1.96-1.03-4.09-1.86-6-.08-1.99,1.7-2.82,4.39-2.13,6.92.28.93.69,1.83,1.21,2.65.85,1.43,1.79,2.8,2.72,4.18,4.09,6.2,3.05,12.5-.91,18.38-1.99,3.21-5.93,4.63-9.5,3.42-2.75-.55-5.24-1.97-7.12-4.05" style="fill:#000000;"/><path id="Path_1116" d="m290.13,797.83l-1.78,4.41c-.47-.07-.68-.04-.81-.13-4.51-3.01-8.17-2.67-11.58,1.55-4.98,5.96-7.15,13.78-5.96,21.45.77,5.46,3.85,7.89,9.45,8.01.46,0,.93.08,1.41.12-1.03,4.71-1.52,5.04-5.86,4.06-4.41-.74-7.86-4.18-8.62-8.59-1.77-9.08.41-18.48,6-25.85,1.57-2.12,3.48-3.97,5.65-5.48,2.56-1.95,5.95-2.43,8.95-1.26,1.09.49,2.15,1.06,3.17,1.7" style="fill:#000000;"/><path id="Path_1117" d="m375.9,809.06h3.39c.21,12.22.42,24.38.63,36.95l11.91-.52v4.64h-14.99c-.31-13.48-.63-27.09-.96-41.06" style="fill:#000000;"/><path id="Path_1118" d="m165.37,787.21l-2.92-1.76,22.25-34.99,2.9,1.71-22.23,35.04" style="fill:#000000;"/><path id="Path_1119" d="m320.41,80.63c-5.15.07-10.22-1.3-14.64-3.96-11.64-6.93-15.46-21.99-8.53-33.63,2-3.36,4.78-6.2,8.1-8.27,9.19-5.84,20.58-7.06,30.8-3.3,9.74,2.99,16.4,11.98,16.39,22.18.48,10.3-4.37,18.06-13.45,22.99-5.79,2.89-12.21,4.26-18.67,3.98m5.12-46.01c-5.52-.3-11,.95-15.84,3.62-6.96,3.73-10.86,11.39-9.78,19.21.41,7.79,5.67,14.49,13.15,16.73,8.07,2.9,17.03,1.93,24.3-2.61,13.74-8.31,11.11-27.19.14-33.66-3.61-2.17-7.76-3.31-11.97-3.28" style="fill:#000000;"/><path id="Path_1120" d="m567.37,104.22c2.8-2.45,5.81-4.65,9-6.56-.27,1.1-.23,1.55-.45,1.73-.9.73-1.04,2.05-.31,2.95.06.07.12.13.18.2,1.61,2.33,3.37,4.56,5.27,6.67,4.67,4.82,10.73,8.06,17.33,9.28,2.61.56,5.32.33,7.79-.66,3.67-1.14,5.73-5.05,4.59-8.72-.38-1.21-1.08-2.3-2.03-3.15-1.35-1.28-2.86-2.36-4.51-3.23-3.68-2.04-7.52-3.8-11.15-5.91-2.73-1.52-5.31-3.3-7.69-5.33-4-3.01-5.45-8.34-3.52-12.96,1.69-4.79,6.24-7.98,11.31-7.94,10.25-.45,18.84,3.68,26.42,10.25,1.09.98,2.13,2.02,3.12,3.11,2.45,2.6,2.44,2.61,5.29,3.01-2.41,2.65-5.36,4.75-8.65,6.16.12-.45.11-.88.31-1.08.94-.83,1.03-2.26.2-3.19-.06-.07-.13-.14-.2-.2-6.18-7.49-13.78-12.45-23.74-12.9-1.76-.05-3.5.3-5.1,1.03-3.2,1.21-4.81,4.78-3.61,7.97.35.93.93,1.77,1.67,2.43,1.61,1.57,3.44,2.91,5.42,3.98,4.09,2.31,8.34,4.33,12.45,6.6,1.99,1.05,3.88,2.29,5.63,3.7,5.3,4.23,6.16,11.96,1.93,17.26-1.31,1.65-3.03,2.93-4.98,3.72-4.28,1.83-9.07,2.08-13.51.71-8.05-1.99-15.29-6.39-20.76-12.62-1.02-1.19-2.02-2.4-2.99-3.62-1.16-1.46-2.21-3.08-4.7-2.66" style="fill:#000000;"/><path id="Path_1121" d="m141.02,126.27c.39-3.34.79-6.67,1.25-10.65.68.83,1.07,1.09,1.08,1.36.04,1.54,1.11,2.02,2.32,2.19,10.42,1.45,19.91-.66,27.85-7.85,1.61-1.57,2.82-3.49,3.55-5.62,1.45-3.41-.14-7.34-3.54-8.79-1.03-.44-2.15-.61-3.26-.51-1.95.11-3.87.52-5.69,1.21-4.32,1.57-8.55,3.41-12.85,5.02-3.28,1.3-6.76,2.02-10.29,2.15-6.37.02-11.56-5.13-11.58-11.5,0-1.1.15-2.19.46-3.25.78-2.75,2.27-5.24,4.33-7.23,6.33-6.24,14.6-10.15,23.45-11.06,1.36-.17,2.74-.23,4.1-.29,2.06-.11,4.3.36,5.66-2.15.25,3.58.1,7.19-.45,10.74-.57-.42-.94-.55-.96-.72-.24-1.98-1.53-2.56-3.29-2.57-9.03-.43-17.83,2.88-24.33,9.15-1.6,1.47-2.68,3.43-3.08,5.56-.86,3.35,1.17,6.77,4.53,7.62.73.19,1.5.24,2.25.15,2.05-.17,4.06-.62,5.97-1.36,3.96-1.43,7.81-3.13,11.75-4.62,2.45-1,4.97-1.81,7.54-2.43,4.35-1.32,9.07.03,12.07,3.45,3.31,3.67,4.23,8.91,2.36,13.49-1.41,3.7-3.92,6.87-7.2,9.08-6.39,4.79-14.08,7.55-22.07,7.91-2.05.06-4.11,0-6.17-.01-1.9,0-3.99-.64-4.98,2.28l-.79-.77" style="fill:#000000;"/><path id="Path_1122" d="m356.32,72.32c1.33-3.38,3-6.62,5-9.65.41.54.74.82.68.95-.65,1.7.09,2.72,1.51,3.6,7.81,5.1,17.38,6.75,26.45,4.56,2.49-.59,4.79-1.79,6.7-3.49,3.76-3.31,4.25-10.52-2.63-12.49-2.17-.57-4.4-.9-6.64-1-4.78-.32-9.59-.33-14.36-.75-2.43-.25-4.82-.8-7.11-1.63-6.01-2.14-9.15-8.75-7.02-14.76.73-2.06,2.03-3.86,3.75-5.21,1.98-1.59,4.22-2.82,6.63-3.62,8.33-2.79,17.36-2.71,25.64.23,1.11.37,2.2.82,3.29,1.25q2.93,1.18,5.35.11c-.88,3.39-2.5,6.55-4.73,9.25-.16-.11-.47-.26-.45-.32.7-2.42-.66-3.53-2.65-4.37-7.17-3.32-15.28-4.04-22.93-2.04-2.5.57-4.78,1.84-6.6,3.65-3.74,4-2.6,9.23,2.54,11.02,2.04.66,4.17,1.04,6.31,1.14,4.88.32,9.78.36,14.67.67,2.15.1,4.28.43,6.36.99,6.54,1.7,10.47,8.39,8.76,14.93-.48,1.86-1.4,3.57-2.67,5.01-2.53,3.04-5.98,5.17-9.83,6.07-8.29,2.22-17.08,1.72-25.07-1.41-2-.79-3.92-1.78-5.88-2.67-1.58-.72-3.15-2.02-5.08-.02" style="fill:#000000;"/><path id="Path_1123" d="m442.5,50.17c-.25,2.94-.5,5.88-.77,9.14-.94-.99-2-1.84-3.17-2.54-1.23-.31-2.5-.46-3.76-.42-5.07-.43-10.14-.85-15.22-1.26-.57-.05-1.15,0-2.05,0-.49,5.84-.98,11.64-1.5,17.76,1.76.21,3.27.44,4.8.56,8.19.68,16.39,1.3,24.59,1.98,2.13.17,4.38.94,5.52-2.28.82,3.29.67,6.75-.45,9.96-1.66-3.23-4.61-2.85-7.34-3.08-11.21-.95-22.43-1.9-33.65-2.85-.56-.05-1.11-.19-1.96-.33.36-.49.5-.91.77-1.02,1.3-.55,2.11-1.87,2.01-3.28.58-7.12,1.19-14.24,1.77-21.36.46-5.66.91-11.32,1.34-16.97.15-2.02.86-4.23-2.38-5.24l.69-.61c.89-.07,1.79-.09,2.68-.06,8,.64,15.99,1.31,23.99,1.99,3.22.27,6.43.6,9.65.83,2.28.17,4.69.75,6.25-1.92.55,3.09.36,6.26-.54,9.26-.9-.9-1.93-1.66-3.06-2.26-1.34-.3-2.7-.44-4.07-.4-8-.69-15.99-1.4-23.99-2.08-1.04-.09-2.1-.01-3.39-.01-.45,5.43-.91,10.76-1.38,16.39,3.45.33,6.63.64,9.82.93,2.73.24,5.46.47,8.19.68,2.19.16,4.49.66,5.95-1.94l.63.45" style="fill:#000000;"/><path id="Path_1124" d="m514.19,42.38c3.43.37,6.78,1.31,9.91,2.78-2.94.82-3.28,3.19-3.9,5.43-1.26,4.61-2.6,9.2-4.01,14.17l32.1,9.12c.34-.99.66-1.79.91-2.61,1.09-3.76,2.15-7.52,3.23-11.28.66-2.3,1.78-4.62-.57-6.8,3.45.17,6.83,1.04,9.94,2.56-1.05.73-2,1.6-2.81,2.59-.54,1.15-.93,2.37-1.13,3.62-3.24,11.38-6.45,22.77-9.73,34.15-.6,2.1-1.26,4.11.85,5.88-3.6.06-7.15-.87-10.25-2.7,3.2-.59,3.46-3.12,4.1-5.44,1.19-4.34,2.46-8.66,3.68-12.99.18-.65.31-1.31.54-2.36l-32.01-9.08c-.38,1.1-.73,1.98-.99,2.89-1.28,4.53-2.54,9.04-3.81,13.56q-.83,2.98.87,5.8c-3.49-.43-6.9-1.35-10.13-2.75,3.07-1,3.44-3.54,4.11-5.96,3.22-11.49,6.47-22.97,9.76-34.44.6-2.08,1.36-4.1-.66-6.11" style="fill:#000000;"/><path id="Path_1125" d="m466.18,60.79c-1.06,6.19-2.15,11.95-2.94,17.76-.17,1.21.77,2.56,1.3,4.14-3.31-.31-6.6-.85-9.83-1.64.05-.36.02-.68.1-.72,1.74-.7,2.9-2.37,2.94-4.25,2.16-12.72,4.37-25.44,6.65-38.14.45-1.79-.35-3.65-1.95-4.56l.53-.33c.74-.06,1.48-.05,2.21.02,8.57,1.49,17.15,2.98,25.7,4.56,2.12.38,4.19.96,6.2,1.73,6.04,2.01,9.6,8.24,8.28,14.46-.88,6.43-6.56,11.11-13.04,10.71-5.16-.38-10.3-1.03-15.39-1.94-3.47-.5-6.91-1.16-10.76-1.81m3.85-22.03c-1.02,5.91-1.98,11.45-2.94,17.1.8.23,1.33.45,1.88.55,5.38.95,10.76,1.93,16.15,2.81,2.2.42,4.44.65,6.69.68,4.01.13,7.45-2.84,7.9-6.83,1.13-3.97-1.02-8.13-4.92-9.49-1.37-.52-2.78-.93-4.21-1.21-1.71-.38-3.45-.66-5.18-.96-4.98-.87-9.98-1.72-15.36-2.65" style="fill:#000000;"/><path id="Path_1126" d="m284.89,35.57c-2.4,2.15-1.53,4.61-1.06,7.07,1.73,9.12,3.43,18.25,5.09,27.38,1.39,7.65-1.18,12.63-8.23,15.91-5.12,2.3-10.82,3-16.35,2.01-.68-.09-1.35-.21-2.02-.37-2.07-.55-4.13-1.07-5.88,1.04-.03-3.56.83-7.07,2.49-10.21.36,3.36,2.87,3.73,5.16,4.3,4.01,1.03,8.23.88,12.15-.42,1.39-.47,2.7-1.12,3.92-1.94,2.44-1.44,3.76-4.22,3.33-7.03-.52-3.67-1.15-7.34-1.81-10.99-1.22-6.73-2.48-13.46-3.78-20.17-.37-1.89-.34-4.15-3.53-4.06,3.18-1.88,6.85-2.75,10.53-2.51" style="fill:#000000;"/><path id="Path_1127" d="m206.21,51.86c.4.67.77,1.35,1.1,2.06.61,1.74,1.19,3.5,2,5.92-2.83-1.89-4.98-.53-7.19.2-2.96.99-5.88,2.06-8.98,3.15.1.69.25,1.37.43,2.04,3.13,9.06,6.27,18.11,9.42,27.15.51,1.47.83,3.17,3.17,3.21-2.52,1.6-5.3,2.73-8.22,3.33,2.01-2.49.94-4.39.26-6.34-2.93-8.4-5.85-16.81-8.77-25.22-.26-.73-.54-1.45-.93-2.49-1.6.51-3.15.98-4.68,1.5-2.22.75-4.42,1.58-6.66,2.29-1.64.26-2.97,1.46-3.39,3.06-1.32-2.26-2.26-4.72-2.79-7.29,2.49,2.09,4.48.77,6.47.08,8.23-2.83,16.44-5.72,24.67-8.58,1.8-.63,3.89-.82,4.1-4.12" style="fill:#000000;"/><path id="Path_1128" d="m566.61,72.1c2.51-1.27,5.23-1.63,6.53-4.37-.45-.25-.91-.5-1.36-.76-1.78-.81-2.6-2.88-1.85-4.68.54-1.86,2.36-3.04,4.27-2.77,1.91.35,3.26,2.06,3.15,4-.21,5.08-4.19,9.2-9.26,9.58-.41,0-.82-.53-1.48-.99" style="fill:#000000;"/><path id="Path_1129" d="m132.19,248.21c.91-.27,1.55-.48,2.2-.68,2.16-.63,4.34-1.2,6.49-1.87,13.31-3.77,24.36-13.05,30.38-25.5,2.16-4.38,4.22-8.81,6.47-13.53l398.41.5c.21.88.45,1.6.57,2.35,1.36,9.42,6.22,17.97,13.62,23.95,6.73,5.56,14.14,10.23,22.07,13.9.61.28,1.2.63,1.91,1v3.24c0,82.7,0,165.4-.02,248.09.16,14.6-.91,29.19-3.2,43.61-3.45,20.22-10.42,39.68-20.59,57.49-16.75,30.25-38.86,57.21-65.23,79.57-28.93,24.18-63.56,40.58-100.6,47.62-22.83,4.32-46.11,5.82-69.31,4.46-20.86-.9-41.53-4.44-61.5-10.54-23.57-7.24-45.57-18.83-64.86-34.19-22.97-18.25-43.51-39.36-61.13-62.81-13.65-17.88-23.82-38.17-29.96-59.81-3.81-13.8-5.73-28.05-5.7-42.37.02-90.54.02-181.07,0-271.61v-2.89m392.69,118.53c-.81-.85-1.04-1.12-1.29-1.36-8.62-8-16.7-16.57-24.18-25.64-3.4-4.05-6.43-8.4-9.05-13-4.28-7.53-10.29-13.94-17.54-18.69-3.18-2.13-6.7-3.7-10.41-4.65-5.46-1.71-11.42.06-15.05,4.48-20.74,22.32-41.69,44.44-62.58,66.63-.76.81-1.58,1.58-2.42,2.39-.23-.41-.41-.57-.41-.73.08-7.54.14-15.09.33-22.63.1-1.04.54-2.02,1.26-2.78,2-2.29,4.16-4.43,6.47-6.4,2.14-1.75,3.52-4.27,3.83-7.01.26-1.64.5-3.29.69-4.95,1.01-6.79,3.18-13.36,6.42-19.42.51-.95,1.12-1.84,1.83-2.65.94-1.29,2.42-2.09,4.01-2.16,2.42-.06,4.59-1.49,5.61-3.69,1.23-2.12,2.28-4.33,3.13-6.63,1.46-4.09,4.19-7.6,7.77-10.05,2.07-1.48,4.02-3.12,5.83-4.91,2.42-2.36,3.76-5.62,3.7-8.99-.05-3.29-1.48-6.4-3.94-8.58-2.19-2.08-4.68-3.85-7.06-5.72-1.84-1.44-2.1-2.32-.64-4.12,1.29-1.58,2.87-2.94,4.28-4.43,1.9-1.83,3.67-3.8,5.29-5.88,2.32-2.79,1.94-6.94-.86-9.26-.7-.58-1.52-1.01-2.4-1.26-1.92-.72-3.95-1.11-6-1.13-3.03-.07-6.06.35-9.09.45s-3.81-.5-4.41-3.48c-.48-2.4-.72-4.85-1.25-7.24-.93-4.15-2.81-5.66-7.07-5.48-4.72.1-9.36,1.3-13.54,3.5-1.79,1-3.81,1.54-5.87,1.56-5.2.21-10.39-.54-15.31-2.21-5.13-2.05-10.77-2.5-16.16-1.29-6.11,1.49-7.58,4.23-5.35,10.04.63,1.43,1.16,2.91,1.6,4.41.48,1.16-.07,2.48-1.23,2.95-.29.12-.6.18-.92.17-1.36.14-2.73.17-4.1.1-3.03-.03-6.06-.2-9.09-.11-2.19.08-4.26,1.01-5.76,2.59-2.74,2.59-3.34,6.74-1.43,9.99,1.05,1.98,2.38,3.82,3.52,5.76,1.32,1.95,1.09,4.56-.57,6.24-.84.96-1.75,1.85-2.64,2.76-1.51,1.54-3.13,2.98-4.53,4.62-4.03,4.11-4.38,10.58-.81,15.09,1.35,1.79,2.95,3.39,4.74,4.75,1.46,1.15,3.06,2.12,4.75,2.89,3.16,1.31,5.25,4.35,5.34,7.77.16,2.05.66,4.06,1.46,5.95.98,2.93,4.16,4.51,7.09,3.53.21-.07.42-.15.62-.25,1.27-.51,2.51-1.1,3.71-1.75.88-.43,1.74-.88,2.63-1.31,1.26-.61,2.18-.17,2.45,1.13.39,1.62.59,3.27.6,4.93-.09,3.13-.37,6.26-.68,9.38-.4,2.17.38,4.39,2.04,5.84.98.81,1.44,2.08,1.21,3.33-.17,2.74-.19,5.48-.06,8.22-.02,4.14,2.35,7.92,6.09,9.69,2.64,1.27,5.38,2.32,8.08,3.45.69.29,1.42.52,2.16.79,0,.57.01.96,0,1.34-.45,10.67-1,21.33-1.29,32.01-.06,2.62-1.17,5.11-3.09,6.89-38.5,40.18-76.97,80.4-115.41,120.64-.74.78-1.53,1.53-2.22,2.36-1,.77-1.18,2.21-.41,3.21.12.15.26.29.41.41.38.45.83.83,1.26,1.24,10.83,10.36,21.67,20.72,32.51,31.08.48.49.98.95,1.52,1.38.86.74,2.14.69,2.94-.1.58-.52,1.12-1.1,1.66-1.66,10.56-11.05,21.12-22.09,31.68-33.14.92-.96,1.83-1.93,2.74-2.89.01.7-.24,1.39-.7,1.92-5.97,8.17-10.28,17.42-12.69,27.25-1.71,6.94-2.86,14.01-3.45,21.13-.68,10.34-7.06,19.44-16.53,23.62-.79.43-1.55.91-2.28,1.43.63.7.92,1.25,1.38,1.52,5.54,3.57,11.85,5.78,18.41,6.43,6.25.79,12.3-2.49,15.06-8.15,1.25-2.33,2.14-4.83,2.62-7.43,1.19-7.04,2.07-14.14,3.01-21.22.68-7.02,2.07-13.96,4.15-20.7,1.13-3.33,2.58-6.55,4.34-9.59,2.46-4.36,7.6-6.45,12.41-5.05,3.06.75,5.88,2.3,8.15,4.49,2.6,2.4,4.73,5.26,6.3,8.43,2.74,5.34,4.32,11.19,4.64,17.18.28,5.27.23,10.57.18,15.86-.17,15.09-.45,30.17-.62,45.26-.11,10.97-.15,21.95-.1,32.92.02,4.81,3.44,6.55,7.59,4.05.5-.31.98-.65,1.43-1.03,3.89-2.97,6.14-7.61,6.05-12.5-.07-7.84-.21-15.67-.35-23.51-.26-14.89-.41-29.78-.88-44.66-.38-8.42-.08-16.85.91-25.22.45-4.29,1.6-8.49,3.41-12.41,1.35-2.87,3.81-5.06,6.82-6.06,6.2-2.59,13.38-.61,17.37,4.79,1.08,1.39,2.03,2.88,2.84,4.44,2.65,5.27,4.07,11.07,4.13,16.97.26,6.26.27,12.54.63,18.8.62,10.81,4.94,16.36,15.19,19.94l.28.1c8.82,2.77,18.2,3.3,27.28,1.53.96-.17,1.89-.5,2.75-.97,1.39-.76,1.45-1.81.14-2.7-1.24-.79-2.53-1.5-3.85-2.15-5-2.49-9.67-5.61-13.88-9.29-4.04-3.49-6.85-8.17-8.03-13.37-1.09-5.17-2.33-10.31-3.42-15.48-1.4-7.9-3.32-15.71-5.75-23.36-3.56-9.78-10.72-17.83-20.03-22.5-1.81-.97-3.75-1.69-5.76-2.13-6.23-1.78-12.91.47-16.79,5.67-1.1,1.37-1.94,2.94-2.94,4.39-.88,1.27-1.72,2.62-3.39,2.84-1.51-1.05-1.19-2.51-1.19-3.83-.02-13.12-.02-26.26,0-39.39,0-.74.07-1.47.15-2.87l8.65,8.65,8.32,8.31,8.11,8.11,8.31,8.32,8.31,8.31,8.32,8.31,8.31,8.31,8.11,8.11c2.77,2.77,5.54,5.54,8.32,8.31,2.74,2.73,5.51,5.44,8.21,8.12,4.44-3.46,37.72-37.14,38.71-39.18-.77-.79-1.57-1.64-2.39-2.46-37.35-37.35-74.69-74.7-112.04-112.04-.62-.62-1.28-1.22-1.86-1.88-1.11-1.07-1.16-2.83-.11-3.96.37-.45.77-.89,1.19-1.3,13.42-14.14,26.78-28.34,40.28-42.41,7.73-8.05,15.69-15.9,23.59-23.79,1.29-1.29,2.78-2.39,4.48-3.83,1.21,1.4,2.34,2.86,3.39,4.38,2.34,3.85,4.56,7.77,6.79,11.69,2.86,5.06,6.94,9.32,11.88,12.38,3.06,1.93,6.07,3.98,8.93,6.19,5.54,4.13,9.76,9.78,12.13,16.27.92,2.58,1.9,5.14,2.91,7.69.37.93.92,1.78,1.62,3.13,4.58-11.65,11.16-19.69,25.39-17.42m-166.18,11.74c-.39-.53-.55-.78-.74-.99-20.59-22.18-41.18-44.35-61.78-66.53-2.14-2.36-5.21-3.65-8.39-3.54-4.72.13-9.33,1.51-13.35,4-8.29,4.94-15.16,11.94-19.94,20.32-1.91,3.3-4.03,6.48-6.34,9.52-7.84,9.92-16.4,19.24-25.62,27.89-.54.51-1.09,1-2.04,1.88,2.09,0,3.62.02,5.14,0,4.47-.14,8.79,1.57,11.95,4.72,3.06,2.91,5.43,6.47,6.95,10.41.26.65.62,1.27,1.17,2.39.55-1.44.94-2.31,1.22-3.22.63-2.06,1.3-4.11,1.78-6.21,2.01-8.28,7.01-15.52,14.03-20.35,2.9-2.17,5.92-4.18,8.93-6.19,3.96-2.57,7.36-5.89,10.03-9.78,1.75-2.6,3.47-5.22,5.24-7.81,1.27-1.86,2.52-3.74,3.94-5.49,2.04-2.49,2.59-2.53,4.94-.42,2.4,2.16,4.8,4.34,7.01,6.68,15.85,16.69,31.68,33.4,47.47,50.14.71.75,1.45,1.47,2.38,2.41l6.02-9.83m232.21,123.83c-.03.21-.06.42-.09.62l-15.56,1.3c-.19,1.63-.37,3.15-.58,4.91l22.85,5.16c.17-1.38.29-2.41.43-3.55l-16.33-2.9c0-.12.01-.25.02-.37l16.97-2.06c.15-.91.29-1.74.45-2.66l-16.16-6.71.12-.36,16.7,1.6c.21-1.36.39-2.49.6-3.87l-23.36-1.74c-.23,1.8-.43,3.31-.63,4.81l14.55,5.83m-248.61,194.9l.3.09c.91,5.68,1.83,11.36,2.77,17.21l2.68.37,6.08-16.54.35.07c-.3,5.59-.6,11.18-.91,16.97l3.88.21c.26-7.84.52-15.43.79-23.31l-4.86-.3c-1.87,5.27-3.62,10.18-5.36,15.1l-.39-.12c-.68-5.2-1.36-10.43-2.06-15.89l-4.91-.23c-1.42,7.78-2.78,15.24-4.17,22.88l3.55.34c.79-5.85,1.54-11.36,2.29-16.87m-169.42-116.63c5.96-.33,10.53-1.81,13.77-5.98,2.73-2.85,2.63-7.37-.22-10.1-1.09-1.04-2.47-1.71-3.96-1.92-5.75-1.39-11.8.53-15.69,4.99-.72.8-1.28,1.73-1.67,2.73-1.52,3.27-.18,7.16,3.03,8.8,1.53.65,3.11,1.14,4.74,1.47m-1.13,9.84c.91,1.99,1.63,3.8,2.52,5.51,1.05,2.03,2.97,3.47,5.22,3.9,5.79,1.02,11.69-1.18,15.39-5.76,1.63-2.03,2.06-4.78,1.13-7.21-.85-2.26-2.05-4.37-3.15-6.66l-21.11,10.21m81.6,95.25c1.6.98,2.99,1.87,4.41,2.72,2.72,1.73,6.22,1.65,8.86-.19,4.27-2.56,7.1-6.96,7.66-11.9.55-2.98-.78-6-3.36-7.61-1.93-1.26-4.04-2.26-6.21-3.46l-11.36,20.45m205.69,10.01l5.68-2.15,3.69,5.56c.68-.21,1.34-.36,1.96-.61s1.17-.58,2.08-1.04l-13.93-19.52-4.64,1.95c1.24,8.06,1.15,15.98,2.47,23.99l3.56-1.48c-.3-2.31-.57-4.41-.88-6.7m137.43-176.11l-24.04,1.33-.95,4.75,21.53,11.15c.33-1.58.58-2.79.83-3.98l-6.18-2.84,1.23-6.03h6.71c.28-1.41.52-2.61.88-4.38m-274.08,167.93l-3.91-.68c-.91,5.87-1.83,11.54-2.66,17.22-.05.88.04,1.76.26,2.61.44,2.71,2.63,4.8,5.36,5.12,2.56.69,5.27-.4,6.62-2.68,1.05-1.64,1.84-3.44,2.34-5.33.99-3.88,1.68-7.84,2.49-11.77.15-.73.23-1.47.36-2.35l-3.47-.65c-.42,2.26-.73,4.28-1.16,6.26-.75,3.43-1.42,6.9-2.45,10.25-.28,1.71-1.9,2.87-3.62,2.59-.14-.02-.29-.06-.43-.1-1.66-.38-2.56-1.51-2.55-3.77.04-1.86.23-3.7.58-5.53.66-3.64,1.44-7.26,2.24-11.2m-65.62-27.52c-2.31,3.26-4.37,6.23-6.51,9.14-1.02,1.43-2.15,2.78-3.38,4.05-1.87,1.88-3.35,2.1-4.93,1s-1.91-2.72-.77-4.96c.86-1.64,1.84-3.22,2.94-4.71,2.09-2.93,4.26-5.79,6.57-8.91l-3.17-2.3c-3.27,5.07-7.17,9.47-9.88,14.69-.22.44-.41.89-.55,1.36-1.08,2.75-.17,5.87,2.2,7.62,2.23,1.93,5.51,2.07,7.89.32.94-.53,1.78-1.21,2.5-2.01,3.39-4.26,6.69-8.59,10.15-13.05l-3.09-2.23m284.06-53.27c3.36,2.07,6.46,3.91,9.5,5.87,1.65,1.04,3.22,2.21,4.69,3.49,1.48.96,1.94,2.92,1.05,4.44-.95,1.6-3,2.16-4.63,1.28-1.63-.66-3.2-1.47-4.68-2.41-3.24-2-6.42-4.1-9.83-6.29l-2.09,3.29c4.54,2.75,8.78,5.36,13.08,7.88,1.11.61,2.3,1.08,3.53,1.4,3.55,1.09,7.31-.89,8.4-4.44.63-2.04.25-4.27-1.02-5.98-.77-1.13-1.73-2.12-2.83-2.94-4.25-2.94-8.6-5.74-13.05-8.7l-2.1,3.12m-367.68-89.48c-1.09.16-1.95.24-2.79.41-3.07.6-6.13,1.34-9.22,1.81-1.93.28-3.89.37-5.84.29-1.45-.06-2.62-1.18-2.75-2.62-.31-1.29.29-2.63,1.46-3.25.83-.52,1.72-.92,2.66-1.19,1.79-.49,3.62-.87,5.43-1.22,3.14-.6,6.28-1.15,9.65-1.76l-.91-3.79c-5.5,1.18-10.66,2.26-15.82,3.41-.95.26-1.86.64-2.7,1.13-2.71,1.21-4.21,4.14-3.6,7.04.32,2.94,2.63,5.28,5.56,5.64,1.15.24,2.34.29,3.51.17,5.2-.74,10.41-1.58,15.84-2.44-.19-1.36-.34-2.38-.52-3.62m340.33,124.68c-2.72,2.74-5.59,4.9-7.92,7.65l15.81,17.01,8.45-7.81-2.62-2.91-5.68,5.43-4.53-4.82,4.42-4.07-2.49-2.6-3.97,3.64-4.34-3.67,5.39-4.85-2.52-3.01m-296.55-20.52l-18.33,14.61,7.2,9,3.07-2.41-5.01-6.07,5.09-4.14,3.82,4.67,2.76-2.24-3.72-4.7,4.34-3.59,4.53,5.8,3.05-2.38-6.81-8.54m178.98,93.94v-3.88l-7.78.51c-.17-2.33-.32-4.33-.48-6.52l6.14-.55c-.18-1.34-.31-2.35-.47-3.46l-5.82.37c-.12-2.06-.23-3.77-.33-5.79h7v-4.07l-10.75.66c.41,7.92.79,15.5,1.19,23.25l11.29-.52m-218.28-178.13c-.2-1.56-.32-2.89-.55-4.2-.96-5.43-6.03-7.23-10.8-3.96-1.22,1.1-2.18,2.47-2.81,3.98-.5,1.17-.92,2.37-1.27,3.59-.39,1.38-1.7,2.3-3.13,2.21-1.36-.1-1.93-1.27-2.18-2.46-.33-1.6-.53-3.23-.83-5.06l-3.62.3c-.31,2.66.2,5.35,1.46,7.71,1.01,2.1,3.21,3.36,5.53,3.18,3.66.03,6.89-2.37,7.92-5.88.38-1.11.62-2.26,1-3.38.26-1.31,1.45-2.24,2.78-2.17,1.38.11,1.91,1.3,2.16,2.47.26,1.23.31,2.49.48,4.01l3.83-.35m388.18,72.4c2.08-1.74,3.54-4.11,4.15-6.75.58-2.14-.17-4.42-1.89-5.8-2.66-2.5-6.65-2.95-9.79-1.1-1.28.71-2.49,1.57-3.77,2.26-.97.57-2.21.38-2.97-.45-.74-.71-.85-1.86-.26-2.7.75-1.34,1.61-2.62,2.51-4.06l-3.2-2.11c-.91,1.29-1.75,2.63-2.52,4.01-1.76,2.93-.8,6.73,2.13,8.49.43.26.88.46,1.36.61,2.39,1.02,5.13.74,7.28-.72,1.19-.85,2.49-1.53,3.86-2.04,1.02-.21,2.09.04,2.91.68.52.45.53,1.8.36,2.66-.28.93-.74,1.81-1.33,2.58-.5.78-1.13,1.48-1.78,2.32l2.94,2.13m-76.27,79.13l-1.57-3.45c-.72.57-1.15.95-1.61,1.28-2.32,2.11-5.91,1.94-8.01-.38-.06-.06-.11-.12-.16-.19-1.63-1.58-2.78-3.58-3.34-5.77-1.05-3.85.01-5.95,3.7-7.34.44-.17.86-.36,1.46-.61l-1.38-3.5c-4.75,1.03-7.29,3.58-7.68,7.62-.53,4.96,1.33,9.88,5.02,13.24,3.41,3.54,9.04,3.64,12.58.24.37-.35.7-.73,1-1.14m-319.78-188.5c.82-4.81-.74-8.12-4.74-9.9-4.53-2.09-9.78-1.9-14.14.52-4.39,2.11-6.24,7.39-4.12,11.78.2.41.42.8.68,1.17l3.67-.33c-.27-.89-.45-1.43-.6-1.98-1.19-2.84.15-6.11,2.99-7.31.02,0,.04-.02.06-.02,1.99-1.1,4.25-1.58,6.51-1.39,3.96.34,6.47,2.04,5.88,6.59.01.3.07.59.16.87h3.65Zm133.47,182.68c-3.83-2.87-7.57-3.02-10.97-.32-4.51,3.38-6.76,9-5.82,14.57.67,4.64,4.97,7.85,9.61,7.18.08-.01.15-.02.23-.04l1.36-3.3c-.86-.13-1.43-.19-2-.3-3.12-.22-5.47-2.92-5.25-6.04,0-.1.02-.2.03-.3-.02-2.57.8-5.07,2.35-7.13,1.28-2.43,4.29-3.36,6.73-2.08.22.12.44.25.64.4l1.41.73,1.7-3.39m144.6,13.58l-1.07-3.41-5.53,1.55-1.95-6.32,7.31-1.87c-.35-1.38-.64-2.49-.97-3.77l-10.7,3.01,6.31,22.49,3.48-1.05c-.88-3.1-1.69-5.97-2.55-8.99l5.66-1.64m-37.34,17.31c-.77-6.59-1.51-12.86-2.26-19.29l5.11-.87c-.17-1.26-.31-2.28-.49-3.56l-13.7,1.6c.1,1.39.18,2.52.26,3.76l5.2-.58c.78,6.7,1.51,13.05,2.26,19.53l3.61-.59m-199.54-94.1l3.22-2.09-7.77-11.67-3.2,2.19c.66.91,1.13,1.51,1.57,2.15s.8,1.28,1.33,2.13l-16.33,10.76,2.12,3.04,16.32-10.86,2.74,4.33m347.18-38.51l18.1,7.68,1.33-3.48c-6.17-2.63-12.17-4.84-18.01-7.67l2-4.62-3.51-1.41-5.38,12.8,3.44,1.53,2.02-4.84m-46.19,93.11l-11.8-15.64,4.06-3.1-2.2-3.04-11.19,8.39,2.32,3.07,4.07-3.21,11.77,15.71,2.98-2.19m-352.63-117l18.73-5.79,1.58,4.87,3.55-1.1-4.13-13.32-3.63,1.1,1.58,4.98-18.72,5.73c.35,1.22.64,2.22,1.03,3.54m409.58-5.97l1.5-4.88-3.6-1.13c-1.38,4.58-2.69,8.89-4.04,13.38l3.64,1.1,1.38-5.01,18.84,5.76.93-3.57-18.65-5.64m-385.19,61.93l20.25-11.6-1.82-3.2-20.28,11.59,1.85,3.2m399.33-41.92l-22.01-7.88-1.18,3.46,21.91,7.89,1.29-3.47m-276.46,136.38l6.11-22.53-3.53-.94c-2.07,7.58-4.07,14.88-6.14,22.45l3.56,1.01m222.46-83.52l18.7,14,2.19-2.99-18.67-13.94-2.23,2.93m-255.7,71.73l3.35,1.57,9.47-21.4-3.39-1.43-9.43,21.26m294.75-155.55l22.59,5.75.94-3.56-22.63-5.74-.91,3.55m-68.85,142.89l-12.45-19.81-3.08,1.99,12.35,19.74,3.17-1.93m-271.5-16.29l15.43-17.65-2.82-2.35-15.33,17.48,2.72,2.52" style="fill:#000000;"/><path id="Path_1130" d="m501.14,368.37c-1.69-4.46-3.31-8.34-4.64-12.32-1.37-3.89-3.45-7.48-6.14-10.6-6.13-7.13-12.7-13.86-19.69-20.16-.53-.38-1.1-.71-1.69-.98-.05,2.46.89,4.84,2.61,6.61,2.72,2.82,5.62,5.47,8.23,8.39,3.91,4.37,7.75,8.83,11.39,13.41,2.15,2.7,3.58,5.89,4.18,9.29.11.54.03,1.1-.23,1.58-.37-.62-.76-1.23-1.1-1.87-1.28-2.42-2.39-4.95-3.87-7.24-1.03-1.66-2.38-3.11-3.97-4.25-6.44-4.65-12.06-10.35-16.61-16.87-3.7-4.92-7.58-9.73-11.74-14.26-1.82-1.45-3.89-2.57-6.1-3.3-.98-.36-1.98-.65-3-.86,2.32-2.68,4.62-4.98,6.94-7.44.85.2,1.69.44,2.51.74,8.48,3.39,16.27,8.29,22.99,14.46,1.89,1.71,3.54,3.66,4.9,5.82,4.76,7.77,10.32,15.03,16.58,21.65,3.04,3.32,6.2,6.54,9.3,9.8.53.56,1.03,1.13,1.95,2.17-5.09-.47-10.03,1.92-12.82,6.21" style="fill:#000000;"/><path id="Path_1131" d="m377.62,288.31c.33-.87.61-1.78,1.02-2.62,1.36-2.81,2.6-5.7,4.21-8.36,1.52-2.66,4.61-4,7.59-3.28,3.5.36,6.53,2.57,7.94,5.8.35,1.3.28,2.69-.2,3.95-.44,1.19-1.15,2.28-2.06,3.17-1.56,1.76-3.28,3.37-5.14,4.8-4.48,3.35-8.26,7.56-11.1,12.38-.94,1.49-1.94,2.94-3.03,4.33-2.26,2.9-3.3,2.72-4.66-.8-.45-1.18-.83-2.41-1.19-3.62-3.03-10.2-1.73-8.67-10.41-16.34-1.64-1.4-3.16-2.93-4.54-4.58-2.09-2.29-2.01-5.82.17-8.02,3.34-4.12,9.39-4.76,13.51-1.42.7.57,1.31,1.23,1.83,1.96,1.79,3.14,3.35,6.4,4.66,9.76.35.91.65,1.84.88,2.79l.54.11" style="fill:#000000;"/><path id="Path_1132" d="m367.89,467.54c.07.06.14.12.21.18.06.07.12.15.15.24.03.09.05.19.06.29.02.19.04.39.04.59v49.29c-.37-.37-.7-.78-.99-1.21-.36-.69-.68-1.41-.95-2.15-2.23-6.26-7.87-10.68-14.48-11.36-3.97-.65-8.01-.71-11.99-.17-3.51.66-6.84,2.09-9.73,4.19.8-1.9,34.34-37.32,37.68-39.87" style="fill:#000000;"/><path id="Path_1133" d="m357.68,297.87c2.28.55,4.23,2.05,5.35,4.11,1.05,1.97,1.93,4.04,2.62,6.17.92,3.31,2.64,6.34,5.03,8.81,1.49,1.4,3.06,2.46,5.22,1.21.72-.46,1.68-.25,2.14.48.1.16.17.33.21.51.54,1.25.87,2.58.98,3.94.1,4.88.29,9.79-.06,14.65-.47,6.56-1.41,7.38-8.26,7.08-1.85-.14-3.68-.48-5.46-1.01-2.28-.47-4.05-2.26-4.48-4.54-1.13-5.45-2.45-10.86-3.32-16.35-1.01-6.38-1.26-12.86-.77-19.3.14-1.82.5-3.62.8-5.77" style="fill:#000000;"/><path id="Path_1134" d="m344.9,510.67c4.21-.21,8.38.95,11.87,3.31.94.71,1.77,1.55,2.47,2.49,1.52,2.08.68,3.87-1.91,4.01-1.17,0-2.33-.18-3.45-.54-3.7-1.04-7.58-1.21-11.36-.52-10.83,1.94-16.78,9.13-19.6,19.16-.9,4.21-1.53,8.47-1.9,12.76-1.34,9-2.58,18.02-4.14,26.99-1.35,6.04-6.56,10.45-12.74,10.76-.39.07-.78.06-1.16-.04-.7-.22-1.32-.63-1.79-1.19-.19-.33.37-1.21.75-1.71.39-.44.87-.8,1.39-1.06,6.5-3.78,8.92-9.81,9.47-16.93.63-10.47,2.41-20.83,5.3-30.92,1.53-5.17,3.65-10.14,6.34-14.82,4.11-7.41,11.98-11.94,20.46-11.77" style="fill:#000000;"/><path id="Path_1135" d="m372.45,227.01c1.24.2,3.17.48,5.09.83,3.07.66,6.27.44,9.22-.63,2.4-.83,4.84-1.51,7.33-2.04.95-.22,1.93-.3,2.91-.24,2.88.13,4.03,1.68,3.39,4.48-.12.57-.33,1.13-.62,1.63-2.67,4.95-7.1,8.73-12.41,10.57-1.13.5-2.1,1.29-2.81,2.3-.91,1.13-1.46,2.54-2.3,3.74-.96,1.96-3.28,2.83-5.29,2-6.29-1.29-11.31-6.03-12.96-12.24-1.7-5.96,1.56-10.39,8.46-10.41" style="fill:#000000;"/><path id="Path_1136" d="m376.74,263.78c-6.26-3.93-12.98-3.94-19.61-4.44-4.88-.37-9.77-.64-14.62-1.27-4.43-.48-8.56-2.45-11.72-5.59-3.6-3.64-2.99-7.05,1.68-9.23,3.81-1.61,8.01-2.08,12.09-1.36,3.91.42,7.71,1.57,11.18,3.41,5.03,2.81,9.97,5.81,14.81,8.96,1.73,1.28,3.28,2.78,4.61,4.48,1.25,1.36,1.83,3.22,1.58,5.05" style="fill:#000000;"/><path id="Path_1137" d="m439.01,585.18c-1.65.8-3.63.42-4.88-.93-1.77-1.68-3.3-3.58-4.57-5.66-2.38-4.52-3.88-9.45-4.42-14.53-.89-6-1.37-12.07-2.31-18.06-.41-2.7-1.21-5.32-2.39-7.79-3.23-6.42-7.98-11.96-13.82-16.14-4.27-3.39-10.14-3.93-14.95-1.36-.88.42-1.75.89-2.66,1.24-.98.55-2.21.35-2.99-.46-.83-.98-.41-2.04.23-2.98,1.19-1.82,2.91-3.23,4.93-4.03,6.18-2.46,12.08-2.65,17.77,1.58,9.36,6.99,15.68,15.77,17.31,27.56.94,6.79,1.91,13.58,2.83,20.37.71,7.48,3.95,14.5,9.17,19.9.29.4.54.82.74,1.27" style="fill:#000000;"/><path id="Path_1138" d="m383.98,260.66c3.04-6.63,7.04-12.2,13.53-15.49,3.31-1.68,6.63-3.36,10.03-4.86,1.61-.7,3.31-1.18,5.06-1.43,3.64-.62,7.17,1.6,8.18,5.16,1.16,3.42-.54,7.16-3.88,8.54-1.86.85-3.84,1.43-5.87,1.72-8.5,1.36-16.88,3.33-25.1,5.89-.64.19-1.29.31-1.94.47" style="fill:#000000;"/><path id="Path_1139" d="m365.19,264c-1.05,1.45-2.51,2.55-4.19,3.17-4.99,2.28-10.3,3.79-15.75,4.46-2.62.33-5.25.51-7.89.52-2.48,0-4.87-.93-6.7-2.6-2.85-2.43-2.59-4.96.68-6.73,2.46-1.27,5.22-1.83,7.97-1.61,5.46.31,10.93.79,16.37,1.35,3.08.31,6.13.93,9.5,1.46" style="fill:#000000;"/><path id="Path_1140" d="m323.86,273.43c1.17.38,2.27.94,3.27,1.65,3.94,3.36,9.27,4.58,14.28,3.28,1.64-.25,3.31-.29,4.96-.12,2.04.17,2.61,1.03,1.86,2.91-1.22,3.29-2.64,6.5-4.24,9.62-1.04,1.76-2.42,3.3-4.06,4.53-2.26,1.79-3.88,1.2-4.95-1.53-.4-1-.66-2.05-.76-3.12-.27-3.5-2.57-6.52-5.88-7.69-1.98-1.03-3.83-2.3-5.49-3.8-.85-.81-1.48-1.81-1.84-2.93-.65-1.79.23-2.84,2.84-2.81" style="fill:#000000;"/><path id="Path_1141" d="m383.79,266.78c2.06-2.66,5.03-4.45,8.34-5.02,6.28-1.04,12.68-1.02,18.95.08,2.35.14,4.28,1.91,4.64,4.24.37,1.69-.42,3.41-1.93,4.24-3.49,2.01-7.5,2.94-11.52,2.7-1.26-.13-2.4-.79-3.14-1.81-2.67-4.27-6.72-5-11.21-4.81-1.24.05-2.47.23-4.13.38" style="fill:#000000;"/><path id="Path_1142" d="m411.75,293.38c0,1.17.06,1.86,0,2.53-.08,2.25-1.97,4.01-4.21,3.93-.02,0-.05,0-.07,0-2.96.18-5.62-1.79-6.31-4.68-.81-2.65-.59-5.51.6-8.01,1.44-2.45,2.21-5.24,2.23-8.09-.06-1.79.8-2.26,2.45-1.68,2.06.44,3.6,2.16,3.81,4.26.41,4.07,1.03,8.15,1.51,11.73" style="fill:#000000;"/><path id="Path_1143" d="m296.39,319.57c-1.68.48-2.81.77-3.93,1.13-2.85.8-5.31,2.6-6.95,5.07-2.66,3.99-5.6,7.79-8.44,11.66-.41.55-.85,1.07-1.34,1.56-5.26,4.91-11.14,9.11-17.5,12.49.48-1.82,1.54-3.43,3.03-4.57,3.53-3.1,7.05-6.23,10.55-9.36,2.09-1.81,3.58-4.21,4.26-6.89.08-.58.11-1.16.1-1.74-.69.33-1.33.74-1.94,1.21-6.26,6.34-12.58,12.62-18.71,19.09-3.29,3.4-5.73,7.52-7.12,12.04-.91,2.99-2.17,5.88-3.29,8.8-.31.8-.68,1.56-1.06,2.4-5.31-4.85-5.32-4.94-12.75-5.79.82-.91,1.48-1.71,2.2-2.45,6.84-6.74,13.22-13.94,19.09-21.54,1.89-2.5,3.64-5.1,5.26-7.78,1.78-3.05,4.02-5.81,6.64-8.18,6.65-5.82,14.21-10.5,22.38-13.85,1.37-.85,3.17-.47,4.07.87,1.58,1.95,3.42,3.72,5.43,5.86" style="fill:#000000;"/><path id="Path_1144" d="m173.81,576.89c-.73-.06-1.46-.17-2.18-.32-1.92-.29-3.25-2.09-2.95-4.02.09-.61.34-1.18.73-1.67,2.83-3.72,7.49-5.55,12.1-4.75,1.88.23,3.23,1.93,3,3.82-.08.67-.36,1.31-.8,1.82-2.33,3.15-5.98,5.04-9.9,5.13" style="fill:#000000;"/><path id="Path_1145" d="m190.85,585.06c2.16,3.18,2.06,5.37-.24,7.78-2.12,2.2-4.97,3.54-8.01,3.78-2.92.3-4.66-1.15-5.58-4.6l13.84-6.96" style="fill:#000000;"/><path id="Path_1146" d="m258.51,684.05l7.35-13.64c3.57,1.12,4.93,3.22,4.31,6.54-.49,2.81-1.93,5.37-4.07,7.26-2.49,2.22-4.42,2.21-7.6-.16" style="fill:#000000;"/><path id="Path_1147" d="m457.96,683.42l4.84,6.98-4.42,1.74c-.37-3.08-.68-5.79-1.01-8.5l.59-.23" style="fill:#000000;"/><path id="Path_1148" d="m585.27,523.91l-.97,4.69-7.64-3.58c.02-.2.05-.39.07-.59l8.53-.52" style="fill:#000000;"/></g></g></g></g></svg>