<?xml version="1.0" encoding="UTF-8"?><svg id="Layer_2" xmlns="http://www.w3.org/2000/svg" xmlns:xlink="http://www.w3.org/1999/xlink" viewBox="0 0 747.87 877.81"><defs><clipPath id="clippath"><rect width="747.87" height="877.81" style="fill:none;"/></clipPath></defs><g id="Layer_1-2"><g id="Group_761"><g style="clip-path:url(#clippath);"><g id="Group_760"><path id="Path_1014" d="m605.1,216.76c-8.66-8.07-14.32-18.85-16.04-30.56H163.88s.34,14.45-15.78,30.56c-8.77,9.33-20.58,15.24-33.31,16.67v298.07c0,61.65,31.6,99.46,68.55,139.45,36.94,39.99,83.5,80.28,192.01,80.28,90.22,0,161.75-43.97,200.23-97.07,38.48-53.1,57.47-80.69,57.47-141.06V232.18s-12.87-.36-27.96-15.42" style="fill:#ffb62f;"/><path id="Path_1015" d="m594.27,224.96c-7.68-6.81-12.57-16.22-13.71-26.42l-408.05-.58s-7.36,20.16-18.59,29.95c-11.23,9.78-30.67,12.92-30.67,12.92v286.35c0,61.07,27.21,94.12,62.46,131.38s82.26,83.44,185.77,83.44,164.37-52.05,201.07-101.53c36.7-49.48,50.02-73.1,50.02-136.24V240.87c-10.32-3.52-19.91-8.91-28.28-15.91" style="fill:#fff;"/><path id="Path_1016" d="m589.31,232.48c-7.49-6.51-12.16-15.68-13.04-25.56l-399.34-.56s-6.78,19.53-17.76,28.99c-8.09,6.21-17.51,10.49-27.51,12.49v274.85c0,51.51,24.21,93.32,58.7,129.38s80.39,80.77,181.72,80.77,160.07-50.41,196.01-98.26c35.94-47.85,46.01-83.55,46.01-132.6v-254.11c-9.02-3.82-17.38-9.02-24.81-15.4" style="fill:#006bb6;"/><path id="Path_1017" d="m305.58,558.94c-1.01,12.99-3.33,23.88-18.64,30.62-.55.23-.81.86-.58,1.42.09.21.24.39.43.51,6.2,3.75,27.27,14.86,35.09-3.36,5.04-11.72,3.01-40.76,12.83-56.74,8.44-13.65,32.2-2.45,32.2,30.64,0,18.62-1.48,86.8-.82,89.84s3.75,5.34,8.35,1.88c4.16-2.96,6.62-7.74,6.61-12.84-.08-4.61-.88-62.31-.88-62.31,0,0-3.68-42.49,8.44-48.71,8.03-4.11,18.76-3.44,24.53,12.42s-2.13,38.2,9.71,47.15c9.92,7.5,23.96,7.32,30.67,6.78,6.71-.54,10.27-1.96,8.91-3.81s-21.93-9.02-25.96-23.26c-4.93-17.3-6.5-39.63-14.5-50.28-10.54-13.98-30.49-24.94-40.87-5.04,0,0-4.61,6.64-4.61-.86v-51.78h-8.44v54.86s1.41,7.23-2.05-1.44-10.52-12.49-24.64-11.65c-14.12.84-22.52,17.61-25.27,21.34-5.66,10.78-9.24,22.53-10.54,34.63m19.48-38.25c7.09-10.16,20.81-13.14,31.48-6.85,5.96,4.82,2.49,6.74,0,6.74-5.11-1.62-10.55-1.94-15.82-.94-10.59,2.96-18.19,12.24-18.99,23.21-1.35,11.72-2.89,25.77-5.23,36.28-2.11,9.49-16.55,12.12-15.91,8.31.56-3.28,10.59-3.14,11.84-19.42s4.41-34.7,12.67-47.33m103.36,56.34c-3.75-8.23-4.84-21.32-5.83-31.5s-14.35-24.42-21.46-26.08c-7.12-1.66-11.67,2.84-13.52,2.84s-4.43-1.68,0-5.84c3.72-2.67,8.23-4.02,12.81-3.83,5.63-.52,20.96,11.39,24.45,25.37,2.54,10.23,2.07,16.37,4.56,29.12,1.37,6.71,4.62,12.89,9.38,17.82,0,1.23-5.85,2.11-10.4-7.9" style="fill:#fff;"/><path id="Path_1018" d="m151.03,696.96c.91-.84,2.33-.8,3.19.09,57.33,56.97,134.85,89,215.69,89.1,125.98,0,208.63-82.09,221.58-95.85.89-.92,2.35-.95,3.28-.07.07.07.14.14.2.22l17.48,21.68c.78.99,2.21,1.17,3.21.4.07-.06.15-.12.21-.19,7.1-7.17,33.25-31.94,44.66-50.54.65-1.09,2.06-1.44,3.15-.79.04.03.09.05.13.08l69.97,50.41c1.05.69,1.34,2.1.65,3.15,0,0-.01.02-.02.02-12.87,20.06-27.52,38.93-43.76,56.38-19.97,19.99-53.01,49.94-60.93,57.5-.91.88-2.37.86-3.25-.06-.05-.05-.09-.1-.13-.15l-22-27.03c-.81-.97-2.25-1.12-3.25-.34-13.39,10.86-102.09,76.85-230.58,76.85-83.89-.66-165.77-25.8-235.56-72.33-.96-.66-2.27-.49-3.03.39l-17.91,20.58c-.78.93-2.16,1.07-3.12.34-7.51-5.69-40.34-27.28-57.83-46.15-17.48-18.87-45.11-55.22-51.66-63.88-.77-1.02-.57-2.47.45-3.24.02-.01.03-.03.05-.04l77.91-52.05c.97-.67,2.3-.51,3.08.38l44.42,53.36c.83.96,2.28,1.07,3.24.24.01-.01.03-.02.04-.04l20.43-18.42Z" style="fill:#006bb6;"/><path id="Path_1019" d="m295.47,310.47c-2.3-2.37-5.54-3.57-8.83-3.28-15.54.94-28.95,17.21-33,25.26-5.47,10.88-30.88,36.65-33.57,38.2s7.3-1.92,13.84,2.3c5.18,3.49,8.98,8.66,10.77,14.64,1.16,3.85,3.48-12.69,7.69-18.84,8.13-11.84,19.23-15.01,25.5-21.94,6.26-6.93,12.2-19.61,15.3-19.61s59.11,60.96,59.11,60.96l6.1-9.99-62.9-67.71Zm-9.23,13.65c-2.32,3.46-5.96,7.88-9.34,12.88-4.57,4.93-9.89,9.11-15.76,12.38-2.26,1.12-5.77,4.61-1.88-1.27.58-.86,13.71-11.11,15.26-14.66,3.55-8.22-.97-3.17-.97-3.17,0,0-21.16,19.04-24.24,27.41-3.08,8.37-5.77,15.27-5.77,15.27-2.67-4.62-7.99-7.02-13.22-5.97-.23-.63,18.99-18.02,27.74-33.36,6.31-11.13,26.79-21.06,30.96-21.82l7.25,7.71s-7.69,1.16-10.01,4.61" style="fill:#fff;"/><path id="Path_1020" d="m372.25,387.41l6.1,9.99s69.9-74.81,72.98-74.81,8.91,15.25,15.15,22.18c6.23,6.93,16.68,9.41,24.81,21.23,4.22,6.16,7.38,20.82,8.52,16.97,1.8-5.97,5.62-11.13,10.79-14.62,6.54-4.22,16.55-.76,13.86-2.3s-28.11-27.31-33.59-38.19c-4.05-8.05-17.47-24.31-33-25.26-3.29-.28-6.54.92-8.85,3.28l-76.75,81.53Zm76-72.52l7.25-7.69c4.17.75,24.66,10.68,30.96,21.8,8.72,15.37,27.96,32.73,27.74,33.36-5.24-1.04-10.56,1.36-13.24,5.97,0,0-2.69-6.91-5.77-15.27s-24.24-27.41-24.24-27.41c0,0-4.5-5.04-.94,3.17,1.53,3.55,24.19,21.13,25.33,33.7.63,7.03-2.84-8.44-9.38-12.57-7.31-5.17-13.53-11.73-18.3-19.31-3.36-5-7.12-7.69-9.42-11.17s-10.01-4.61-10.01-4.61" style="fill:#fff;"/><path id="Path_1021" d="m420.82,258.92c-5.51-3.79,15.26-12.34,10.44-20.97s-20.06-2.24-22.47-4.85-.8-13.13-5.63-15.01-15.64,1.51-18.04,3.38-11.23,1.14-15.64.38-11.99-5.51-22.38-2.34c-11.41,3.51.71,13.6-2.89,16.6-3.6,3-16.46-3.38-21.67,4.48-5.21,7.86,4.82,12.73,4.02,17.96s-13.64,10.1-11.64,19.83c2,9.73,11.26,11.99,14.85,14.97s.8,10.86,6.01,14.6,12.44-5.6,14.01-2.24.43,11.62.04,15.72c-.06,2.62,1.32,5.07,3.6,6.37,0,0-2.41,13.48,2.81,17.98,3.91,2.97,8.43,5.04,13.24,6.05l-1.6,38.87,13.24,15.35.8-54.22s6.01-6.44,9.21-9.05,2.41-12.36,4.82-18.73,5.21-16.09,10.42-16.09,6.82-5.6,10.03-13.09,13.24-9,15.74-17.96c2.5-8.96-6.45-14.6-11.34-17.98m-55.59-29.95c6.01-5.23,13.09.76,19.52-1.51,6.43-2.28,15.24-5.23,15.64,0s-9.62,13.83-13.22,13.83-4.26,9.19-9.23,8.44c-3.64-.82-7.05-2.4-10.03-4.65,0,0-8.68-10.86-2.67-16.09m-24.21,12.34c9.23.38,16.04,3.75,26.88,10.86s8.48,11.62,8.48,11.62c-9.57-7.86-32.14-1.5-43.37-9.38-11.23-7.88-1.22-13.48,8.01-13.13m7.23,38.97l-1.6,4.46c-1.21,3.27-2.97,6.31-5.21,8.98-2.81,2.63-5.23,3.75-6.83,0s.47-7.86-6.57-10.85-9.85-9.38-5.85-9.74,6.99,4.5,11.32,5.25,16.36-2.59,14.75,1.9m-14.87-9.03c-6.01-2.61-7.62-7.45,0-9.71s31.83,2.26,31.83,2.26c-3.75,5.25-25.8,10.12-31.83,7.45m42.98,73.01c-3.66,1.12-12.89.38-14.9-2.99s-7.62-29.95-4-43.8c0,0,5.47,1.12,7.75,9.73,2.28,8.6,7.88,12.92,10.07,10.86,1.88-1.77,3.83,1.12,3.83,6.37s.94,18.71-2.74,19.83m10.79-49.78c-5.21,4.11-10.83,16.47-13.24,15.94s-4.02-11.11-6.01-15.22-12.83-10.49-13.64-14.95,3.6-9.38,11.23-9.02,11.64,17.98,11.64,17.98c1.21-5.06,3.53-9.78,6.79-13.83,4.41-4.13,12.83-.38,14.44,4.52,1.61,4.9-6.01,10.46-11.23,14.58m17.83,4.85c-3.81-1.12-4.61-4.48-4.61-8.48s3.6-6.5,3.25-11.72,5.98,0,5.98,0c0,0,2,12.71,2,16.09s-2.81,5.23-6.61,4.11m-1.34-26.42c-6.05.61-4.45-4.39-9.65-5.99-3.66-.93-7.51-.93-11.17,0,3.49-4.03,8.64-6.25,13.97-6.03,9.23.26,18.86-1.21,18.84,6.03,0,3.62-5.94,5.38-11.99,5.99m7.59-18.87c-9.64,1.52-19.14,3.81-28.41,6.85,3.04-6.51,7.89-12.01,13.97-15.83,8.81-4.48,14.44-7.9,19.65-5.99s8.44,13.13-5.21,14.97" style="fill:#fff;"/><rect id="Rectangle_327" x="239.1" y="446.09" width="175.95" height="49.14" transform="translate(-239.14 381.8) rotate(-46.28)" style="fill:#fff;"/><path id="Path_1022" d="m284.04,553.34c-.55,0-1.07-.21-1.46-.6l-35.53-33.95c-.41-.38-.64-.92-.65-1.48-.02-.56.19-1.1.58-1.5l121.59-127.15c.39-.4.92-.64,1.48-.65.56-.02,1.1.19,1.5.58l35.54,33.96c.83.81.85,2.13.06,2.97l-121.59,127.16c-.4.41-.94.65-1.52.65m-32.56-36.11l32.49,31,118.69-124.09-32.48-31.05-118.69,124.13Z" style="fill:#ffb62f;"/><path id="Path_1023" d="m498.33,514.98l-37.82,37.81c-.32.32-.84.32-1.16,0l-120.9-120.84c-.32-.33-.32-.85,0-1.18l37.82-37.79c.32-.32.84-.32,1.16,0l120.9,120.84c.32.32.32.84,0,1.16" style="fill:#ffb62f;"/><path id="Path_1024" d="m148.29,708.13l-52.84,52.46c-.67.64-.69,1.7-.04,2.37.01.01.03.03.04.04,12.52,11.95,114.03,108.79,280.82,108.79,141.2,0,253.79-102.18,266.59-114.24.67-.64.7-1.7.06-2.37l-50.34-53.04c-.86-.92-2.3-.96-3.22-.1,0,0,0,0,0,0-12.76,12.02-98.83,90.81-219.38,90.81-81.05-.35-159.13-30.51-219.35-84.72-.66-.62-1.7-.6-2.35.04" style="fill:#ffb62f;"/><path id="Path_1025" d="m153.87,780.27l-3.03-2.13c4.33-5.94,8.18-11.29,11.53-16.06l-9.55-6.68c-2.71,3.85-6.44,9.27-11.19,16.28l-3.03-2.13c4.59-6.24,8.85-12.13,12.76-17.68,4.07-5.81,7.76-11.23,11.09-16.28l3.03,2.13c-3.62,4.87-7.09,9.66-10.39,14.36l9.6,6.74c2.65-3.77,5.98-8.65,9.99-14.64l3.03,2.13c-3.55,4.72-7.4,10.04-11.56,15.94-4.56,6.5-8.65,12.5-12.29,18.02" style="fill:#006bb6;"/><path id="Path_1026" d="m164.94,787.35l-3.12-1.98c3.87-5.71,7.84-11.79,11.93-18.24,4.03-6.37,7.47-11.96,10.32-16.78l3.12,1.98c-3.27,4.8-6.86,10.29-10.79,16.49-4.13,6.48-7.95,12.66-11.47,18.54" style="fill:#006bb6;"/><path id="Path_1027" d="m189.34,800.79c-2.26-.02-4.48-.61-6.45-1.72-3.8-2.01-6.12-6.02-5.96-10.32.14-5.14,1.64-10.16,4.35-14.54,2.6-4.76,6.4-8.76,11.02-11.6,5.11-3.57,12.13-2.46,15.87,2.52l-3.04,4.35c-1.06-1.45-2.37-2.69-3.87-3.68-2.69-1.58-6.07-1.39-8.58.47-3.33,2.23-6.05,5.25-7.94,8.79-2.19,3.63-3.41,7.75-3.57,11.99-.33,3.48,1.4,6.83,4.43,8.57.86.44,1.77.78,2.71,1.01.94-2.02,2.09-4.31,3.55-6.85,1.23-2.13,2.35-4.28,3.38-6.41l3.06,1.75c-1.49,2.39-3.01,4.93-4.56,7.63-.67,1.16-2.15,3.83-4.43,8.01" style="fill:#006bb6;"/><path id="Path_1028" d="m213.44,813.88l-3.33-1.62c3.36-6.56,6.33-12.45,8.91-17.66l-10.46-5.13c-2.07,4.23-4.92,10.17-8.56,17.83l-3.28-1.64c3.59-6.88,6.87-13.36,9.85-19.44,3.13-6.37,5.94-12.31,8.44-17.82l3.28,1.64c-2.81,5.38-5.49,10.64-8.03,15.79l10.54,5.16c2.04-4.13,4.57-9.46,7.6-16l3.33,1.62c-2.78,5.23-5.77,11.08-8.96,17.55-3.49,7.11-6.61,13.68-9.36,19.69" style="fill:#006bb6;"/><path id="Path_1029" d="m258.82,820.47c-2.67,7.39-7.15,9.96-13.43,7.69-2.12-.72-4.05-1.91-5.63-3.49l2.35-4.46c1.37,1.71,3.17,3.03,5.21,3.83,2.69,1.56,6.13.65,7.7-2.04.27-.46.47-.96.6-1.48.7-1.78.77-3.74.19-5.57-.76-1.85-1.74-3.6-2.91-5.21-1.36-1.86-2.39-3.94-3.04-6.14-.89-5.35,1.08-10.77,5.19-14.3,2.01-1.56,4.7-1.93,7.06-.97,2.09.58,4.02,1.63,5.63,3.08l-2.17,4.61c-1.48-1.61-3.32-2.83-5.38-3.56-3.13-1.14-5.32.01-6.57,3.46-.59,1.48-.64,3.13-.15,4.65.75,1.62,1.67,3.16,2.74,4.59,1.44,1.93,2.55,4.09,3.28,6.39.72,2.96.49,6.08-.63,8.91" style="fill:#006bb6;"/><path id="Path_1030" d="m280.76,833.05l-1.59,4.48c-1.78.3-3.6.18-5.32-.34-4.11-1.06-7.23-4.43-7.97-8.61-.99-5.01-.66-10.18.94-15.03,1.4-5.28,4.17-10.09,8.03-13.96,2.86-3.28,7.35-4.64,11.54-3.47,1.21.39,2.33,1.03,3.28,1.88l-1.96,4.72c-.97-1.01-2.17-1.78-3.49-2.24-3-.89-6.24.13-8.2,2.57-2.68,3.02-4.61,6.63-5.63,10.53-1.3,4-1.55,8.26-.73,12.38.45,3.31,2.79,6.06,6,7.03,1.68.37,3.41.39,5.1.08" style="fill:#006bb6;"/><path id="Path_1031" d="m304.75,843.77l-3.6-.8c1.7-7.15,3.18-13.57,4.45-19.25l-11.38-2.49c-1.03,4.59-2.38,11.04-4.07,19.34l-3.6-.8c1.85-7.54,3.5-14.62,4.95-21.23,1.53-6.95,2.86-13.38,3.98-19.31l3.62.8c-1.48,5.9-2.83,11.65-4.05,17.25l11.45,2.52c.99-4.5,2.2-10.29,3.58-17.35l3.62.78c-1.48,5.73-2.97,12.12-4.54,19.17-1.7,7.75-3.17,14.87-4.41,21.36" style="fill:#006bb6;"/><path id="Path_1032" d="m339.68,827.45c-.51,5.7-2.54,11.15-5.88,15.79-1.95,3.22-5.5,5.12-9.26,4.95-3.45-.77-6.23-3.34-7.27-6.72-1.89-4.98-2.36-10.38-1.37-15.61.5-5.72,2.54-11.21,5.9-15.87,1.97-3.19,5.52-5.07,9.26-4.89,3.45.77,6.23,3.34,7.27,6.72,1.89,4.98,2.36,10.38,1.37,15.61m-3.53.26c.84-4.33.54-8.8-.86-12.98-1.35-3.21-3.14-4.98-5.42-5.3-2.11-.3-4.22,1.03-6.28,3.92-2.35,3.69-3.8,7.88-4.22,12.23-.85,4.34-.54,8.83.88,13.01,1.35,3.23,3.14,4.98,5.42,5.3,2.09.3,4.18-1.05,6.28-4,2.34-3.68,3.77-7.86,4.18-12.19" style="fill:#006bb6;"/><path id="Path_1033" d="m368.99,829.23c-.02,5.73-1.59,11.35-4.54,16.26-1.68,3.37-5.05,5.56-8.81,5.71-3.51-.47-6.5-2.8-7.81-6.1-2.3-4.8-3.23-10.15-2.69-15.44.02-5.75,1.6-11.39,4.56-16.32,1.69-3.33,5.06-5.49,8.8-5.63,3.51.46,6.5,2.78,7.81,6.07,2.3,4.8,3.23,10.15,2.69,15.44m-3.49.56c.46-4.38-.21-8.81-1.96-12.86-1.6-3.08-3.55-4.69-5.85-4.82-2.11-.11-4.09,1.38-5.9,4.45-2.04,3.87-3.12,8.17-3.16,12.55-.48,4.39.21,8.83,1.98,12.88,1.61,3.1,3.55,4.7,5.83,4.82,2.13.11,4.09-1.38,5.92-4.5,2.01-3.87,3.08-8.15,3.14-12.51" style="fill:#006bb6;"/><path id="Path_1034" d="m391.7,845.51v4.69l-15.3.36c.04-5.25-.04-12.51-.24-21.8-.19-7.99-.41-14.56-.67-19.69l3.62-.09c-.08,4.3,0,10.86.19,19.69.17,7.26.23,13.08.17,17.46,3.9-.08,7.97-.28,12.25-.61" style="fill:#006bb6;"/><path id="Path_1035" d="m439.7,844.35l-4.05.65c-1.24-4.38-2.75-8.68-4.54-12.86l-11.09,1.79c-.39,4.53-.47,9.09-.24,13.63l-3.88.61c-.11-.77.46-7.74,1.72-20.91s1.79-20.39,1.6-21.66l4.47-.71c.19,1.23,2.86,7.83,8.01,19.79,5.15,11.96,7.82,18.51,8.01,19.66m-10.14-16.19c-4.99-11.84-7.55-18.14-7.67-18.91l-.21.04c.09.65-.41,7.45-1.52,20.39l9.4-1.51Z" style="fill:#006bb6;"/><path id="Path_1036" d="m460.68,826.31c1.04,3.33.74,6.93-.84,10.04-1.67,2.74-4.43,4.65-7.59,5.23-.97.24-2.91.65-5.83,1.23-1.38-6.44-3.02-13.52-4.91-21.25-1.77-7.26-3.42-13.62-4.93-19.06l2.26-.56c.47-.11,1.33-.36,2.65-.75s2.28-.65,2.88-.8c5.25-1.27,8.59,1.05,10.03,6.96,1.35,3.4.8,7.26-1.46,10.14l.08.32c3.75.17,6.31,3.01,7.66,8.5m-9.06-16.62c-1.04-4.28-3.33-5.99-6.85-5.13-1.45.32-2.85.83-4.17,1.51.47,1.48,1.53,5.66,3.23,12.59.63-.11,1.31-.26,2.05-.47,1.96-.3,3.76-1.26,5.1-2.72,1.08-1.73,1.31-3.86.63-5.79m6,17.92c-1.23-5.08-4.61-6.94-10.1-5.6-.89.21-1.77.49-2.61.84,1.34,5.51,2.61,10.41,3.81,14.71.88.03,1.77-.08,2.61-.34,2.38-.34,4.53-1.61,5.98-3.53.88-1.92,1-4.1.32-6.1" style="fill:#006bb6;"/><path id="Path_1037" d="m485.32,826.78l1.37,4.61-14.92,4.8c-1.85-6.31-3.99-13.26-6.43-20.83-2.3-7.11-4.4-13.34-6.3-18.67l13.99-4.5,1.33,4.57c-3.48.84-7.12,1.88-10.93,3.1,1.08,3.13,2.49,7.35,4.22,12.66,3.29-1.04,6.18-2.1,8.66-3.17l1.46,4.52c-2.81.69-5.77,1.54-8.87,2.56,1.68,5.19,3.31,10.04,4.87,14.56,4.11-1.33,7.96-2.73,11.56-4.22" style="fill:#006bb6;"/><path id="Path_1038" d="m511.78,821.61l-3.49,1.41c-3.42-5.21-5.77-8.61-7.04-10.23-.99-1.55-2.4-2.78-4.07-3.55-1.36-.21-2.74.02-3.96.65-1.03.41-1.92.78-2.69,1.16,2.54,6.37,4.81,11.82,6.82,16.36l-3.36,1.35c-2.28-6.18-4.9-12.96-7.86-20.35-2.78-6.93-5.32-12.98-7.6-18.17l2.56-1.03c.54-.21,1.22-.52,2.02-.94s1.74-.8,2.81-1.23c5.27-2.11,9.1-.19,11.49,5.77,2.02,3.85,1.93,8.47-.24,12.23l.11.3c2.03.38,3.84,1.54,5.02,3.23,1.48,1.7,4.64,6.04,9.49,13.03m-16.66-25.52c-1.88-4.69-4.76-6.27-8.65-4.69-1.18.44-2.3,1.03-3.33,1.77,1.46,3.4,3.38,8.05,5.73,13.95.75-.26,1.44-.51,2.11-.76,3.69-.99,5.88-4.79,4.88-8.48-.17-.62-.42-1.22-.76-1.77" style="fill:#006bb6;"/><path id="Path_1039" d="m527.1,789.59c2.52,4.89,3.83,10.31,3.81,15.81.34,4.3-1.91,8.39-5.73,10.4-1.21.6-3.31,1.46-6.28,2.57-2.71-6.01-5.83-12.57-9.32-19.69-3.29-6.72-6.26-12.57-8.91-17.55l1.92-.94c.47-.23,1.16-.6,2.09-1.12s1.53-.88,1.83-1.01c3.62-2.05,8.09-1.87,11.53.46,3.96,2.8,7.09,6.62,9.06,11.05m-2.41,2.78c-1.68-3.76-4.33-7.01-7.67-9.41-2.88-2.02-6.65-2.22-9.73-.52-.67.35-1.3.78-1.88,1.27,2.28,4.41,4.56,8.94,6.85,13.65,2.52,5.15,5.15,10.35,7.88,15.59,1.01-.12,2-.41,2.91-.86,3.02-1.41,4.88-4.51,4.69-7.84-.08-4.14-1.13-8.2-3.04-11.87" style="fill:#006bb6;"/><path id="Path_1040" d="m555.35,793.57l2.3,4.22-13.6,7.78c-3.13-5.79-6.67-12.13-10.63-19.04-3.72-6.48-7.07-12.13-10.05-16.95l12.76-7.3,2.24,4.18c-3.23,1.57-6.57,3.32-10.03,5.32,1.7,2.81,3.96,6.64,6.74,11.52,3.01-1.72,5.61-3.35,7.81-4.91l2.37,4.11c-2.6,1.27-5.31,2.72-8.14,4.35,2.73,4.72,5.32,9.15,7.81,13.24,3.74-2.16,7.22-4.33,10.43-6.52" style="fill:#006bb6;"/><path id="Path_1041" d="m574.59,781.19l2.54,4.09-13.14,8.57c-3.44-5.63-7.33-11.77-11.67-18.43-4.09-6.25-7.75-11.7-10.98-16.36l12.31-8.03,2.47,4.07c-3.12,1.74-6.37,3.7-9.71,5.88,1.88,2.71,4.33,6.42,7.4,11.11,2.89-1.88,5.4-3.66,7.51-5.34l2.59,3.98c-2.51,1.41-5.14,3.01-7.88,4.78,2.99,4.59,5.83,8.85,8.56,12.79,3.61-2.35,6.95-4.72,10.03-7.11" style="fill:#006bb6;"/><path id="Path_1042" d="m599.02,769.31l-2.19,1.62c-.21-.28-4.97-3.1-14.23-8.44-6.15-3.32-12.08-7.02-17.76-11.1l-.15.11c3.25,3.98,5.96,7.43,8.14,10.36,4.26,5.73,8.64,11.45,13.14,17.16l-2.63,1.94c-3.94-5.66-8.19-11.55-12.76-17.68-4.48-6.01-8.49-11.21-12.04-15.6l2.99-2.24c4.32,2.96,8.79,5.68,13.39,8.16,5.87,3.15,11.47,6.75,16.77,10.79l.17-.11c-3.28-4.03-6-7.5-8.14-10.38-4.71-6.31-8.77-11.61-12.2-15.91l2.65-1.98c3.19,4.65,7.03,9.98,11.51,16,4.56,6.12,8.99,11.89,13.3,17.29" style="fill:#006bb6;"/><path id="Path_1043" d="m150.79,503.39l-4.13.3c-.55-1.16-.92-2.4-1.1-3.68-.51-2.75.41-5.58,2.45-7.5,2.18-1.97,4.94-3.19,7.86-3.49,3.09-.49,6.25,0,9.04,1.41,2.58,1.24,4.33,3.72,4.63,6.56.14,1.06.11,2.13-.09,3.17l-4.17.08c.29-1.02.38-2.08.26-3.14-.15-1.68-1.24-3.14-2.81-3.75-1.82-.71-3.79-.92-5.71-.61-2.05.22-4,1.04-5.6,2.34-1.44,1.13-2.16,2.95-1.88,4.76.2,1.25.63,2.45,1.25,3.55" style="fill:#fff;"/><path id="Path_1044" d="m173.29,520.66c-3.96.65-7.91,1.36-11.86,2.11-7.82,1.48-12.18-.22-13.07-5.08-.53-2.1.06-4.33,1.56-5.9,2.59-2.01,5.7-3.24,8.96-3.56,3.94-.75,7.82-1.51,11.62-2.32l.71,3.79c-3.98.63-7.82,1.29-11.51,1.98-2.29.27-4.5,1.02-6.48,2.19-1.46,1.12-1.73,3.22-.61,4.68.43.56,1.03.97,1.71,1.17,2.28.37,4.62.25,6.85-.34,3.59-.67,7.39-1.45,11.41-2.34l.7,3.63Z" style="fill:#fff;"/><path id="Path_1045" d="m160.99,542.07c-4.54,1.12-7.42-.79-8.65-5.73-.41-1.6-.53-3.25-.36-4.89l4.03-.32c-.3,1.42-.29,2.88.04,4.3.17,1.06.62,2.06,1.29,2.89.54.53,1.32.71,2.04.47.84-.19,1.57-.71,2.02-1.44.6-1.12,1.04-2.32,1.33-3.56.33-1.37.95-2.64,1.81-3.75,1.05-1.19,2.46-2.01,4.02-2.34,1.7-.53,3.54-.34,5.1.52,1.52,1.02,2.55,2.61,2.88,4.41.4,1.47.57,2.98.51,4.5l-3.98.47c.27-1.35.23-2.74-.11-4.07-.5-2.07-1.5-2.93-2.95-2.57-.71.15-1.33.58-1.72,1.2-.49,1.02-.85,2.1-1.08,3.21-.32,1.45-.93,2.82-1.79,4.03-1.13,1.36-2.68,2.3-4.41,2.67" style="fill:#fff;"/><path id="Path_1046" d="m182.65,555.27l-3.72,1.05c-.33-1.68-.75-3.35-1.25-4.98-2.17.65-4.57,1.38-7.23,2.2-4.11,1.27-7.97,2.5-11.62,3.75l-1.12-3.64c3.66-1.01,7.59-2.15,11.73-3.42,2.59-.8,4.99-1.57,7.19-2.28-.38-1.23-.99-2.87-1.83-4.95l3.75-1.05,4.1,13.31Z" style="fill:#fff;"/><path id="Path_1047" d="m179.6,579.19c-2.98,1.27-6.27,1.58-9.43.9-2.55-.47-4.68-2.21-5.66-4.61-.86-2.28-.5-4.83.94-6.79,1.7-2.48,4.16-4.34,7-5.3,2.97-1.29,6.27-1.6,9.43-.9,2.55.46,4.68,2.19,5.66,4.59.86,2.28.51,4.85-.94,6.81-1.71,2.48-4.18,4.34-7.04,5.3m-1.83-3.32c2.02-.67,3.81-1.9,5.16-3.55,1.04-1.12,1.39-2.7.92-4.15-.62-1.34-1.93-2.23-3.4-2.32-2.06-.27-4.15.02-6.05.84-2.01.68-3.79,1.91-5.14,3.55-1.04,1.14-1.39,2.76-.9,4.22.63,1.34,1.94,2.22,3.42,2.3,2.05.27,4.13-.02,6.03-.84" style="fill:#fff;"/><path id="Path_1048" d="m189.06,598.31c-2.8,1.43-5.96,2-9.08,1.64-2.82-.25-5.29-1.99-6.46-4.57-.58-1.21-1.33-2.91-2.22-5.1,3.28-1.46,6.99-3.19,11.06-5.16,3.92-1.9,7.23-3.58,9.95-5.02l1.03,2.15c.17.36.47.86.82,1.53s.6,1.14.69,1.35c1.43,2.39,1.51,5.36.21,7.82-1.4,2.36-3.49,4.23-6,5.36m-2.32-3.01c1.87-.83,3.45-2.18,4.56-3.9.97-1.59,1.01-3.58.09-5.21-.25-.48-.54-.94-.86-1.38-2.11,1.12-4.33,2.26-6.68,3.4-2.56,1.25-5.1,2.52-7.59,3.83.13.58.31,1.15.56,1.7.71,1.63,2.27,2.73,4.05,2.84,2.03.11,4.06-.32,5.86-1.27" style="fill:#fff;"/><path id="Path_1049" d="m183.21,613.28l-1.9-3.34c3.27-1.74,6.83-3.7,10.68-5.9,3.79-2.17,6.99-4.06,9.58-5.67l1.9,3.34c-2.67,1.41-5.92,3.17-9.75,5.36-3.92,2.24-7.42,4.31-10.52,6.22" style="fill:#fff;"/><path id="Path_1050" d="m213.64,617.63l-3.28,2.05c-.86-1.62-1.72-3.1-2.59-4.43-1.9,1.23-4.02,2.61-6.31,4.15-3.58,2.37-6.97,4.65-10.1,6.85l-2.11-3.17c3.25-2,6.67-4.22,10.29-6.59,2.26-1.51,4.35-2.91,6.26-4.22-.71-1.08-1.75-2.49-3.14-4.22l3.28-2.05,7.71,11.64Z" style="fill:#fff;"/><path id="Path_1051" d="m208.53,642.56l-3.16,2.37-7.21-9.05c2.9-2.17,6.11-4.66,9.65-7.47,3.4-2.71,6.28-5.06,8.59-7.08l6.89,8.64-3.16,2.34c-1.55-2.26-3.03-4.22-4.39-5.97-1.25,1.1-2.74,2.37-4.52,3.75,1.18,1.48,2.51,3.02,3.94,4.63l-2.93,2.34c-1.23-1.74-2.45-3.36-3.64-4.85-1.9,1.5-3.66,2.95-5.27,4.31,1.55,1.94,3.28,3.96,5.19,6.03" style="fill:#fff;"/><path id="Path_1052" d="m227.31,666.96l-2.89-2.54c2.54-2.71,5.27-5.73,8.18-9.05,2.88-3.28,5.29-6.1,7.21-8.5l2.89,2.54c-2.07,2.19-4.56,4.94-7.47,8.25-2.97,3.4-5.61,6.5-7.92,9.3" style="fill:#fff;"/><path id="Path_1053" d="m259.36,662.14c-2.43,3.21-4.82,6.42-7.17,9.67-4.67,6.42-9,8.19-12.98,5.3-1.84-1.17-2.94-3.2-2.91-5.38.49-3.24,1.9-6.27,4.05-8.74,2.35-3.25,4.65-6.48,6.85-9.67l3.12,2.26c-2.46,3.21-4.8,6.33-7,9.35-1.47,1.77-2.56,3.82-3.19,6.03-.26,1.24.26,2.51,1.31,3.21,1,.8,2.38.92,3.49.3,1.9-1.32,3.51-3.01,4.73-4.97,2.15-2.95,4.38-6.13,6.7-9.54l3,2.17Z" style="fill:#fff;"/><path id="Path_1054" d="m272.05,681.95c-1.46,2.79-3.72,5.08-6.48,6.59-2.45,1.42-5.47,1.4-7.9-.04-1.18-.65-2.76-1.62-4.76-2.87,1.85-3.1,3.88-6.64,6.07-10.61,2.11-3.81,3.85-7.08,5.25-9.82l2.07,1.16c.34.19.86.47,1.55.8s1.14.56,1.35.67c2.55,1.13,4.33,3.51,4.69,6.27.22,2.74-.41,5.48-1.81,7.84m-3.62-1.12c1.06-1.75,1.57-3.77,1.48-5.81-.12-1.86-1.25-3.51-2.93-4.31-.47-.25-.97-.46-1.48-.63-1.08,2.13-2.26,4.33-3.51,6.61-1.38,2.5-2.73,5-4,7.5.43.41.92.77,1.44,1.06,1.52.93,3.43.93,4.95,0,1.73-1.08,3.13-2.61,4.05-4.43" style="fill:#fff;"/><path id="Path_1055" d="m276.34,697.51l-3.53-1.55c1.6-3.34,3.33-7.03,5.12-11.09,1.79-4.06,3.21-7.41,4.33-10.25l3.53,1.55c-1.33,2.71-2.89,6.07-4.69,10.1-1.83,4.13-3.42,7.88-4.78,11.25" style="fill:#fff;"/><path id="Path_1056" d="m297.3,700.86l-1.59,3.81c-1.29-.03-2.57-.27-3.79-.69-2.69-.79-4.79-2.88-5.58-5.57-.77-2.84-.61-5.85.47-8.59.96-2.97,2.84-5.57,5.36-7.41,2.26-1.74,5.27-2.18,7.94-1.16,1.01.35,1.96.86,2.81,1.51l-1.83,3.75c-.77-.73-1.68-1.29-2.67-1.66-1.58-.64-3.38-.33-4.65.8-1.45,1.31-2.53,2.98-3.12,4.83-.74,1.93-.9,4.03-.47,6.05.37,1.8,1.68,3.25,3.42,3.83,1.2.38,2.46.54,3.72.47" style="fill:#fff;"/><path id="Path_1057" d="m306.25,707.76l-3.7-1.01c1.08-3.55,2.2-7.45,3.38-11.72,1.14-4.2,2.05-7.8,2.74-10.79l3.72,1.01c-.9,2.87-1.94,6.44-3.08,10.7-1.2,4.33-2.2,8.29-3.04,11.82" style="fill:#fff;"/><path id="Path_1058" d="m333.05,689.7c-.84,3.92-1.65,7.85-2.41,11.8-1.51,7.78-4.69,11.21-9.53,10.29-2.16-.28-4.01-1.66-4.91-3.64-.91-3.15-.91-6.5,0-9.65.77-3.94,1.48-7.82,2.13-11.65l3.75.73c-.88,3.96-1.68,7.77-2.39,11.45-.59,2.22-.71,4.54-.36,6.81.51,1.77,2.36,2.8,4.14,2.29.68-.19,1.27-.6,1.71-1.15,1.18-1.99,1.93-4.2,2.2-6.5.69-3.59,1.37-7.41,2.04-11.48l3.63.71Z" style="fill:#fff;"/><path id="Path_1059" d="m357.13,715.73l-3.94-.36c.19-2.04.41-5.45.65-10.27s.43-7.82.52-9.02h-.21c-.15.71-.51,2.02-1.06,3.9s-1.57,4.69-2.99,8.33c-.93,2.13-1.67,4.34-2.22,6.59l-2.99-.28c-.12-2.34-.44-4.66-.94-6.94-.67-3.86-1.1-6.56-1.29-8.1s-.28-3.06-.34-4.57h-.21c-.15,1.5-.56,4.69-1.22,9.54s-1.06,8.07-1.22,9.62l-3.52-.36c.04-.35.69-3.9,1.96-10.64,1.29-6.74,2-10.86,2.15-12.42l5.23.47c.02,3.01.31,6,.86,8.96.55,2.94.83,5.92.86,8.91h.19c.62-2.94,1.53-5.81,2.71-8.57,1.19-2.78,2.09-5.67,2.69-8.62l5.21.47c-.23,2.47-.43,6.87-.58,13.24-.15,6.37-.26,9.74-.3,10.12" style="fill:#fff;"/><path id="Path_1060" d="m395.69,711.4l.08,3.94-11.56.58c-.06-3.62-.19-7.69-.41-12.19-.23-4.35-.47-8.05-.73-11.11l11.04-.54.04,3.94c-2.73-.08-5.19-.04-7.4.08.17,1.64.3,3.6.41,5.86,1.9-.09,3.92-.26,6.07-.51l.19,3.75c-2.13,0-4.17,0-6.1.11.11,2.43.26,4.69.47,6.79,2.49-.11,5.12-.36,7.92-.69" style="fill:#fff;"/><path id="Path_1061" d="m412.62,690.13l.36,3.85c-1.72.02-3.43.12-5.14.32.24,2.24.52,4.74.84,7.5.51,4.26,1.01,8.31,1.55,12.1l-3.75.43c-.31-3.77-.72-7.82-1.23-12.14-.32-2.71-.61-5.21-.94-7.5-1.27.15-2.99.47-5.19.9l-.34-3.86,13.85-1.59Z" style="fill:#fff;"/><path id="Path_1062" d="m445.42,682.7l.94,3.81c-2.76.58-5.27,1.18-7.47,1.79.65,1.94,1.33,4.11,2,6.5,1.68-.47,3.58-1.06,5.7-1.77l.99,3.56c-2.19.5-4.11.99-5.77,1.46.9,3.25,1.79,6.31,2.69,9.15l-3.62.98c-.86-3.51-1.9-7.43-3.12-11.8-1.18-4.18-2.24-7.75-3.18-10.66l10.85-3.02Z" style="fill:#fff;"/><path id="Path_1063" d="m472.22,697.68l-4.07,1.55c-1.05-2.02-2.24-3.96-3.57-5.81l-5.86,2.24c.22,2.27.63,4.52,1.22,6.72l-3.83,1.48c-.17-.47-.54-4.39-1.14-11.85-.2-4.08-.63-8.16-1.29-12.19l4.8-1.85c.24.63,2.53,3.92,6.87,9.89,4.35,5.96,6.63,9.24,6.87,9.85m-9.51-7.21c-3.66-5.21-5.57-8.05-5.75-8.52l-.21.09c.17.43.61,3.83,1.33,10.19l4.63-1.77Z" style="fill:#fff;"/><path id="Path_1064" d="m487.75,685.16l1.68,3.75c-.91.92-1.97,1.69-3.12,2.28-2.41,1.43-5.38,1.51-7.86.23-2.6-1.39-4.68-3.57-5.96-6.22-1.48-2.75-2.08-5.88-1.7-8.98.29-2.85,2.04-5.34,4.63-6.56.94-.5,1.97-.85,3.03-1.01l1.46,3.9c-1.06.06-2.09.34-3.04.8-1.55.7-2.55,2.22-2.59,3.92-.06,1.96.41,3.89,1.37,5.6.9,1.86,2.32,3.42,4.09,4.48,1.55.97,3.51,1.03,5.12.15,1.11-.61,2.09-1.41,2.91-2.37" style="fill:#fff;"/><path id="Path_1065" d="m499.01,683.2l-3.28,2.05c-1.88-3.21-3.99-6.69-6.33-10.44-2.32-3.7-4.33-6.82-6.05-9.35l3.25-2.04c1.52,2.61,3.42,5.79,5.77,9.52,2.39,3.83,4.6,7.24,6.63,10.25" style="fill:#fff;"/><path id="Path_1066" d="m501.82,652.53l2.24,3.14c-1.56.94-2.98,1.89-4.26,2.86,1.33,1.83,2.84,3.85,4.5,6.07,2.58,3.44,5.06,6.66,7.45,9.65l-3.04,2.3c-2.19-3.12-4.59-6.41-7.19-9.85-1.64-2.19-3.16-4.18-4.57-6.01-1.03.76-2.37,1.9-4.03,3.4l-2.24-3.17,11.15-8.37Z" style="fill:#fff;"/><path id="Path_1067" d="m527.04,655.8l2.61,2.97-8.5,7.88c-2.37-2.73-5.1-5.75-8.18-9.07-2.95-3.17-5.53-5.86-7.69-8.03l8.09-7.5,2.56,2.99c-2.13,1.72-4,3.32-5.63,4.82,1.2,1.16,2.58,2.57,4.11,4.22,1.38-1.29,2.81-2.71,4.32-4.28l2.56,2.74c-1.64,1.35-3.16,2.69-4.57,4,1.65,1.77,3.21,3.42,4.69,4.93,1.83-1.7,3.71-3.57,5.63-5.63" style="fill:#fff;"/><path id="Path_1068" d="m549.81,635.14l-2.32,3.08c-2.9-2.32-6.11-4.8-9.65-7.45-3.49-2.61-6.52-4.78-9.02-6.52l2.3-3.1c2.35,1.9,5.29,4.18,8.81,6.81,3.61,2.71,6.9,5.1,9.88,7.17" style="fill:#fff;"/><path id="Path_1069" d="m542.73,603.61c3.36,2.2,6.72,4.37,10.14,6.52,6.71,4.22,8.75,8.42,6.13,12.6-1.04,1.91-2.99,3.15-5.16,3.28-3.27-.3-6.39-1.51-9-3.49-3.4-2.13-6.78-4.22-10.1-6.2l2.05-3.25c3.36,2.24,6.63,4.36,9.8,6.37,1.85,1.36,3.97,2.3,6.22,2.78,1.83.17,3.46-1.17,3.63-3,.07-.71-.09-1.42-.46-2.02-1.44-1.81-3.23-3.31-5.27-4.41-3.08-1.94-6.4-3.96-9.95-6.05l1.97-3.13Z" style="fill:#fff;"/><path id="Path_1070" d="m565.98,595.73c3.33,1.31,4.97,5.08,3.66,8.41-.22.56-.52,1.1-.89,1.58-.74,1.48-1.73,2.81-2.93,3.94l-3.25-2.41c1.15-.88,2.1-2,2.78-3.28.55-.92.87-1.96.94-3.02-.06-.75-.54-1.41-1.23-1.7-.75-.41-1.63-.5-2.45-.24-1.2.45-2.33,1.06-3.36,1.81-1.14.82-2.44,1.38-3.81,1.64-1.58.22-3.18-.08-4.57-.86-1.64-.71-2.91-2.07-3.51-3.75-.48-1.77-.22-3.66.73-5.23.65-1.36,1.52-2.62,2.56-3.71l3.33,2.26c-1.09.84-1.98,1.91-2.59,3.14-.97,1.9-.78,3.21.54,3.88.64.36,1.39.45,2.09.23,1.03-.45,2.01-1.02,2.89-1.72,1.2-.88,2.56-1.51,4.02-1.85,1.74-.3,3.53,0,5.08.86" style="fill:#fff;"/><path id="Path_1071" d="m557.97,571.59l3.51,1.58c-.86,1.6-1.6,3.14-2.24,4.63l6.95,2.95c3.96,1.66,7.73,3.21,11.3,4.59l-1.48,3.51c-3.46-1.57-7.17-3.21-11.19-4.89-2.51-1.06-4.82-2.04-6.97-2.89-.51,1.2-1.08,2.84-1.77,4.97l-3.53-1.6,5.42-12.84Z" style="fill:#fff;"/><path id="Path_1072" d="m582.91,571.22l-1.33,3.62c-3.44-1.36-7.23-2.81-11.43-4.3-4.09-1.48-7.6-2.68-10.52-3.6l1.29-3.62c2.81,1.14,6.26,2.45,10.44,3.94,4.18,1.49,8.07,2.84,11.54,3.96" style="fill:#fff;"/><path id="Path_1073" d="m566.69,545.21l3.66,1.21c-.69,1.68-1.29,3.28-1.75,4.82,2.17.69,4.57,1.41,7.23,2.22,4.11,1.25,8.02,2.39,11.73,3.42l-1.1,3.64c-3.6-1.21-7.51-2.47-11.64-3.71-2.59-.78-5.02-1.51-7.23-2.15-.38,1.23-.8,2.93-1.27,5.12l-3.66-1.21,4.04-13.35Z" style="fill:#fff;"/><path id="Path_1074" d="m591.48,542.41l-.94,3.75c-3.55-1.03-7.51-2.09-11.78-3.17-4.22-1.08-7.84-1.94-10.83-2.57l.94-3.75c2.88.86,6.46,1.83,10.74,2.91,4.37,1.12,8.33,2.05,11.88,2.84" style="fill:#fff;"/><path id="Path_1075" d="m596.43,519.69l-.88,4.28c-2.27-.21-4.54-.26-6.82-.13l-1.25,6.16c2.04,1.02,4.15,1.89,6.31,2.59l-.8,4.01c-.47-.09-4-1.9-10.63-5.42-3.56-2.02-7.24-3.85-11-5.47l1.03-5.04c.67.13,4.69,0,12.05-.47,7.36-.47,11.36-.63,11.99-.51m-11.19,4.15c-6.35.28-9.77.39-10.27.28l-.04.23c.47.09,3.57,1.53,9.32,4.35l.99-4.86Z" style="fill:#fff;"/><path id="Path_1076" d="m600.19,493.29l-.52,3.92c-2.02-.26-5.42-.61-10.24-1.08s-7.79-.75-8.98-.9v.21c.69.19,1.98.6,3.85,1.25s4.59,1.74,8.18,3.28c2.1,1.01,4.27,1.84,6.5,2.5l-.39,2.97c-2.34.03-4.68.24-6.99.63-3.88.52-6.6.82-8.14.94s-3.08.15-4.57.15l-.04.21c1.48.21,4.65.75,9.49,1.6s8.03,1.38,9.57,1.58l-.47,3.56c-.36-.06-3.88-.84-10.56-2.41s-10.79-2.43-12.33-2.63l.69-5.23c3.01.11,6.02-.04,9-.47,2.95-.43,5.93-.6,8.91-.51l.04-.21c-2.91-.72-5.74-1.74-8.44-3.02-2.73-1.3-5.58-2.33-8.52-3.06l.69-5.16c2.47.32,6.85.69,13.21,1.12s9.73.65,10.1.71" style="fill:#fff;"/><path id="Path_1077" d="m260.5,353.99c-.44.24-.84.54-1.2.9-.23.3.26-.08,1.2-.9" style="fill:#fff;"/><path id="Path_1078" d="m633.35,704.34l29.14-33.83c.58-.67,1.59-.78,2.3-.24l58.78,44.08c.71.53.89,1.52.41,2.26-2.26,3.42-8.68,12.9-16.01,21.88-7.14,8.75-14.75,18.02-18.64,22.56-.86.97-2.34,1.06-3.31.2-.06-.05-.11-.1-.16-.16l-52.47-53.67c-.78-.87-.8-2.18-.03-3.06" style="fill:#ffb62f;"/><path id="Path_1079" d="m680.91,767.09c.8.88.8,2.22,0,3.1-1.03,1.14-4.59,4.85-6.05,6.44-1.81,1.92-3.72,3.72-5.74,5.41-.66.58-1.66.54-2.28-.08l-19.46-19.23c-.66-.64-.67-1.7-.03-2.36.01-.01.02-.02.03-.03l3.44-3.44c.63-.65.65-1.68.04-2.34l-31.23-33.19c-.62-.64-.62-1.66,0-2.3l5.31-5.6c.9-.93,2.39-.95,3.32-.05.03.03.06.06.08.09l52.58,53.57Z" style="fill:#ffb62f;"/><path id="Path_1080" d="m111.98,706.8l-30.4-35.27c-.57-.65-1.54-.78-2.25-.28l-59.88,43.08c-.76.53-.95,1.58-.42,2.34,0,0,0,0,0,0,2.69,3.79,10.59,14.82,18,23.91,7.29,8.91,15.22,18.22,18.17,21.64.59.7,1.64.79,2.34.19.04-.03.07-.07.11-.1l54.22-53.22c.63-.62.67-1.63.09-2.3" style="fill:#ffb62f;"/><path id="Path_1081" d="m61.3,767.88c-.65.64-.67,1.68-.04,2.34,2.05,2.19,6.37,6.78,8.35,8.94.32.36.61.69.9.99,1.58,1.66,4.21,1.72,5.87.14.05-.05.1-.1.14-.14l10.65-11.11c.63-.66.61-1.7-.04-2.34l-3.44-3.46c-.65-.66-.65-1.72,0-2.37l38.74-39.6c.65-.68.62-1.75-.06-2.4-.02-.02-.05-.05-.07-.07l-4.86-4.05c-.66-.56-1.65-.52-2.26.09l-53.89,53.03Z" style="fill:#ffb62f;"/><path id="Path_1082" d="m.56,153.69c-.7-.82-.74-2.01-.09-2.87,4.02-5.45,19.11-23.97,39.11-24.62,19.52-.61,39.28-13.96,45.35-18.41,1.04-.78,1.25-2.25.47-3.28h0l-13.24-17.28c-.79-1.01-.6-2.46.4-3.24.04-.03.09-.07.14-.1C89.09,72.85,203.91,0,377.2,0s286.69,74.22,302.23,85.02c1.03.72,1.29,2.13.6,3.17l-12.08,18.13c-.71,1.08-.41,2.54.68,3.25.05.03.11.07.16.1,12.06,6.53,24.95,11.39,38.33,14.45,17.52,2.99,34.54,14.58,40.4,24.05.53.84.47,1.93-.15,2.71l-58.81,74.33c-.76,1-2.19,1.19-3.19.43-.01-.01-.03-.02-.04-.03-6.41-5.04-28.52-21.82-43.37-24.48-14.35-2.57-33.68-12.94-40.21-16.62-1.11-.62-1.51-2.02-.89-3.13.05-.09.1-.17.16-.25l11.06-14.92c.75-1.02.54-2.46-.49-3.22-.03-.02-.06-.04-.09-.06-14.33-9.41-104.05-64.64-236.39-64.64s-216.37,48.34-230.41,56.96c-1.08.68-1.41,2.11-.73,3.19.02.03.04.06.06.09l10.39,14.68c.71,1,.5,2.39-.47,3.14-11.21,8.92-23.89,15.82-37.47,20.39-21.18,6.59-32.71,9.28-48.49,31.08-.77,1.04-2.24,1.27-3.28.5-.13-.1-.25-.21-.36-.33L.56,153.69Z" style="fill:#006bb6;"/><path id="Path_1083" d="m9.64,152.03c-.49-.57-.52-1.4-.09-2.02,8.19-10.99,20.49-18.21,34.09-19.99,15.83-2.64,21.33-5.06,23.24-6.5.71-.59,1.75-.5,2.35.21l53.11,62.08c.61.71.52,1.78-.19,2.38-.1.08-.2.15-.32.21-8.44,4.25-17.37,7.46-26.58,9.56-13.28,2.99-24.13,16.41-27.68,21.34-.54.76-1.59.93-2.35.39-.12-.09-.23-.19-.32-.3L9.64,152.03Z" style="fill:#ffb62f;"/><path id="Path_1084" d="m76.19,120.31c7.9,9.93,44.87,56.46,50.66,63.77.46.59,1.25.8,1.94.52,2.2-.81,4.29-1.92,6.2-3.28.68-.59.78-1.62.21-2.32-6.23-7.74-44.46-55.02-51.28-63.47-.55-.7-1.56-.83-2.28-.3-1.46,1.01-3.03,1.84-4.69,2.47-.87.32-1.32,1.29-1,2.16.06.16.14.31.25.45" style="fill:#ffb62f;"/><path id="Path_1085" d="m741.08,150.63c.49-.59.5-1.44.04-2.05-2.59-3.42-12.16-14.07-33.06-18.54-7.94-1.59-15.67-4.04-23.07-7.32-.69-.33-1.52-.13-2,.47l-52.03,63.45c-.58.71-.48,1.76.23,2.34.1.08.21.15.33.21,7.76,3.8,15.78,7.05,24,9.71,11.73,3.7,24.97,15.42,29.12,19.27.68.63,1.75.58,2.37-.1.03-.03.05-.06.08-.09l54-67.34Z" style="fill:#ffb62f;"/><path id="Path_1086" d="m676.3,121c-7.62,9.33-45.59,55.88-51.5,63.1-.47.56-1.24.77-1.92.51-2.21-.82-4.31-1.94-6.22-3.32-.68-.59-.76-1.62-.19-2.32l51.37-63.53c.54-.68,1.5-.83,2.22-.36,1.33.86,3.51,2.24,5.7,3.38.82.41,1.15,1.42.73,2.24-.05.11-.12.21-.19.3" style="fill:#ffb62f;"/><path id="Path_1087" d="m80.6,88.34l50.58,65.49c.52.69,1.47.86,2.2.41,11.62-7.26,102.15-60.7,242.31-60.7s227.63,57.11,239.42,64.9c.74.5,1.74.32,2.26-.39l52.28-69.73c.56-.75.4-1.8-.34-2.36-.04-.03-.08-.06-.13-.09-15-9.13-135.76-79.57-293.38-79.57S96.29,76.7,81.04,85.88c-.8.47-1.06,1.5-.59,2.29.04.06.07.12.12.17" style="fill:#ffb62f;"/><path id="Path_1088" d="m167.81,68.95l-.84,10.59-1.16-.08c0-.71-.09-1.41-.26-2.09-.3-.65-1.44-.99-3.4-1.03-5.3-.06-10.55,1.05-15.37,3.25-3.68,1.58-6.94,3.99-9.52,7.05-1.05,1.29-1.78,2.8-2.13,4.43-.31,1.44-.16,2.94.43,4.3.51,1.1,1.35,2.03,2.39,2.65,1.08.66,2.32,1.01,3.58,1.01,1.59-.03,3.17-.29,4.69-.76,1.7-.52,4.39-1.57,8.07-3.1,3.63-1.58,7.34-2.97,11.11-4.17,1.97-.63,4.04-.89,6.1-.76,4.37.19,8.22,2.9,9.88,6.94,1.83,3.91,1.62,8.47-.56,12.19-3.1,5.18-7.84,9.17-13.47,11.33-3.31,1.57-6.82,2.69-10.42,3.34-3.99.55-8.02.67-12.03.36-.76-.05-1.53,0-2.28.13-.32.15-.65.76-.99,1.88l-1.13-.16,1.18-10.46,1.16.11c-.06.68,0,1.37.19,2.04.31.71,2.2,1.16,5.66,1.35,2.86.18,5.73.03,8.56-.47,2.75-.54,5.43-1.4,7.97-2.57,4.64-1.71,8.52-5.02,10.94-9.33,1.17-2.19,1.26-4.79.24-7.06-1.32-2.92-4.5-4.53-7.64-3.85-1.22.11-2.43.36-3.58.76-1.18.43-4.43,1.72-9.79,3.92-3,1.27-6.08,2.32-9.23,3.16-2.16.53-4.39.71-6.61.54-1.94-.16-3.81-.85-5.39-2-1.61-1.16-2.88-2.73-3.7-4.54-1.42-3.09-1.48-6.63-.15-9.76,1.25-2.79,3.13-5.25,5.49-7.19,2.83-2.48,6.03-4.51,9.47-6.03,2.8-1.29,5.74-2.26,8.76-2.89,3.33-.61,6.72-.9,10.1-.88.52.03,1.04-.02,1.55-.15.39-.17.73-.86,1.01-2.04l1.11.04Z" style="fill:#006bb6;"/><path id="Path_1089" d="m192.33,62.87l10.56,30.38c.15.58.48,1.09.94,1.48.51.26,1.08.35,1.64.26l.3.88-7.76,2.69-.3-.88c.49-.27.89-.7,1.12-1.21.12-.58.05-1.18-.21-1.72l-10.56-30.4-12.57,4.37c-.58.16-1.1.48-1.5.94-.27.5-.36,1.08-.24,1.64l-.86.3-2.45-7.03.88-.3c.26.51.68.91,1.2,1.14.59.11,1.2.04,1.75-.21l29.4-10.23c.59-.14,1.11-.47,1.5-.94.27-.5.35-1.08.24-1.64l.88-.3,2.43,7.03-.86.3c-.26-.51-.69-.91-1.22-1.14-.59-.11-1.19-.04-1.74.21l-12.58,4.38Z" style="fill:#006bb6;"/><path id="Path_1090" d="m255.42,87.9l2.47-9.8,1.12.3c-.11.55-.14,1.11-.08,1.66.11.69,1.2,1.33,3.21,1.92,3.67,1.11,7.55,1.32,11.32.61,2.51-.39,4.88-1.41,6.89-2.97,1.62-1.25,2.66-3.12,2.86-5.16-.06-2.69-.41-5.36-1.03-7.97l-4.94-26.14c-.08-.74-.38-1.44-.86-2.02-.57-.42-1.27-.63-1.98-.6l-.23-1.14,10.09-1.88.23,1.12c-.67.25-1.24.71-1.62,1.31-.24.7-.27,1.45-.08,2.17l5.16,27.41c.47,2.17.78,4.38.94,6.59.05,1.35-.14,2.71-.56,4-.96,2.84-2.88,5.25-5.43,6.82-2.59,1.67-5.5,2.81-8.54,3.32-2.13.44-4.29.64-6.46.58-2.76-.21-5.5-.63-8.2-1.25-.56-.15-1.14-.21-1.72-.19-.38.08-.86.61-1.46,1.64l-1.12-.35Z" style="fill:#006bb6;"/><path id="Path_1091" d="m320.27,29.46c7.51-1.1,15.16.58,21.52,4.72,3.18,2.19,5.78,5.13,7.57,8.55,1.54,2.94,2.48,6.16,2.78,9.47.45,4.65-.49,9.34-2.69,13.46-2.46,4.75-6.39,8.57-11.21,10.9-4.06,1.95-8.44,3.14-12.92,3.51-7.48,1.1-15.1-.59-21.43-4.73-3.16-2.22-5.75-5.15-7.57-8.55-1.5-2.85-2.43-5.96-2.74-9.17-1.05-10.32,4.49-20.18,13.86-24.65,4.04-1.91,8.38-3.1,12.83-3.51m.47,4.91c-6.43.28-12.48,3.11-16.81,7.86-3.52,4.08-5.15,9.46-4.48,14.8.38,5.38,3.02,10.36,7.27,13.69,5.2,3.83,11.71,5.43,18.1,4.45,6.47-.28,12.57-3.11,16.96-7.88,3.46-4,5.08-9.28,4.47-14.54-.29-5.49-2.93-10.58-7.24-13.99-2.35-1.86-5.07-3.18-7.97-3.88-3.37-.73-6.83-.91-10.25-.54" style="fill:#006bb6;"/><path id="Path_1092" d="m403.85,30.22l-5.08,9.34-1.01-.54c.27-.65.47-1.32.6-2.02,0-.71-.9-1.5-2.69-2.32-4.81-2.22-10.06-3.34-15.35-3.28-4.01-.06-7.98.82-11.58,2.57-1.49.74-2.78,1.84-3.75,3.19-.88,1.19-1.35,2.63-1.35,4.11,0,1.21.39,2.39,1.1,3.38.72,1.05,1.72,1.87,2.89,2.37,1.47.63,3.02,1.03,4.61,1.2,1.75.23,4.63.38,8.63.47,3.96.01,7.91.24,11.84.67,2.05.22,4.05.82,5.88,1.77,3.91,1.94,6.33,5.98,6.2,10.34.09,4.33-1.95,8.42-5.46,10.96-4.94,3.46-10.9,5.17-16.92,4.87-3.67.09-7.33-.31-10.89-1.18-3.86-1.11-7.58-2.63-11.11-4.54-.68-.35-1.39-.62-2.13-.82-.38,0-.94.47-1.68,1.31l-.99-.6,5.34-9.07,1.01.56c-.33.61-.56,1.27-.67,1.96,0,.76,1.55,1.94,4.63,3.51,2.54,1.33,5.23,2.36,8.01,3.06,2.73.64,5.53.93,8.33.88,4.94.31,9.83-1.15,13.8-4.11,1.95-1.53,3.08-3.86,3.08-6.34-.03-3.21-2.29-5.97-5.44-6.63-1.16-.4-2.36-.64-3.58-.73-1.23-.11-4.74-.24-10.54-.41-3.25-.05-6.49-.33-9.69-.86-2.2-.38-4.32-1.11-6.28-2.19-1.7-.93-3.11-2.31-4.07-4-1.01-1.7-1.55-3.65-1.55-5.63-.05-3.4,1.33-6.66,3.81-8.98,2.27-2.05,4.99-3.55,7.94-4.37,3.6-1.11,7.35-1.67,11.11-1.66,3.08-.03,6.16.28,9.17.94,3.29.78,6.5,1.88,9.58,3.28.47.23.96.4,1.48.51.43,0,1.01-.51,1.75-1.48l1,.47Z" style="fill:#006bb6;"/><path id="Path_1093" d="m417.17,54.47l-1.52,18.18,31.4,2.61c.74.12,1.49.02,2.17-.3.56-.43.95-1.05,1.1-1.74l1.16.09-.78,9.24-1.14-.09c-.07-.71-.36-1.38-.84-1.9-.61-.43-1.34-.65-2.09-.65l-39.28-3.28.09-1.14c.71-.05,1.39-.34,1.92-.82.41-.61.63-1.33.61-2.07l3.38-40.5c.12-.73.02-1.48-.3-2.15-.44-.55-1.05-.94-1.74-1.12l.09-1.16,38.85,3.23c.73.13,1.49.04,2.17-.28.55-.45.95-1.06,1.12-1.75l1.14.09-.75,9.28-1.16-.09c-.04-.7-.31-1.38-.78-1.9-.62-.42-1.36-.65-2.11-.65l-30.91-2.57-1.41,16.78,20.27,1.7c.74.12,1.5.02,2.19-.3.55-.45.93-1.07,1.1-1.75l1.14.11-.76,9.24-1.16-.09c-.03-.71-.31-1.38-.78-1.9-.62-.42-1.36-.65-2.11-.65l-20.28-1.68Z" style="fill:#006bb6;"/><path id="Path_1094" d="m465.93,60.35l-3.14,18.05c-.15.58-.07,1.2.21,1.74.4.56.96.99,1.6,1.23l-.19,1.14-10.1-1.75.19-1.14c.69-.03,1.36-.24,1.94-.61.44-.41.72-.97.78-1.57l7.14-41c.14-.58.06-1.19-.23-1.72-.41-.55-.97-.98-1.6-1.23l.21-1.12,25.46,4.43c2.8.42,5.56,1.1,8.24,2.02,1.83.67,3.52,1.69,4.97,2.99,1.46,1.29,2.58,2.92,3.23,4.76.78,2.18.96,4.54.52,6.81-.48,3.13-2.1,5.96-4.54,7.97-1.88,1.56-4.17,2.52-6.6,2.78-3.5.24-7.02,0-10.46-.71l-17.62-3.06Zm.8-4.61l18.15,3.16c2,.39,4.03.63,6.07.73,1.28.03,2.55-.18,3.75-.63,2.72-1.07,4.6-3.58,4.86-6.49.74-2.83-.18-5.84-2.37-7.78-.97-.81-2.08-1.44-3.28-1.85-1.95-.61-3.94-1.06-5.96-1.36l-18.17-3.16-3.04,17.39Z" style="fill:#006bb6;"/><path id="Path_1095" d="m547.06,78.13l-32.37-9.17-5.12,17.98c-.26.69-.3,1.45-.13,2.17.32.65.86,1.16,1.52,1.46l-.32,1.1-9.88-2.81.32-1.1c.71.07,1.43-.08,2.05-.43.51-.53.86-1.2,1.01-1.92l11.08-39.09c.27-.7.31-1.46.13-2.19-.33-.62-.85-1.12-1.5-1.41l.3-1.1,9.88,2.78-.33,1.1c-.71-.08-1.42.07-2.04.43-.53.52-.89,1.19-1.03,1.92l-4.69,16.62,32.37,9.17,4.69-16.62c.26-.7.31-1.47.15-2.2-.33-.63-.86-1.12-1.52-1.41l.32-1.12,9.85,2.81-.32,1.1c-.71-.07-1.41.1-2.02.47-.54.51-.9,1.18-1.03,1.9l-11.09,39.09c-.25.69-.29,1.44-.11,2.15.33.64.85,1.15,1.5,1.46l-.32,1.12-9.85-2.81.3-1.12c.71.08,1.42-.07,2.04-.43.53-.51.89-1.18,1.03-1.9l5.13-17.99Z" style="fill:#006bb6;"/><path id="Path_1096" d="m567.21,72.94l-.58-1.55c1.5-.25,2.94-.77,4.26-1.53,1.08-.72,1.97-1.71,2.58-2.86-.51-.05-1.01-.14-1.5-.28-.96-.31-1.74-1.01-2.15-1.92-.38-.95-.38-2,0-2.95.33-1.01,1.05-1.86,2-2.34,1.84-.89,4.06-.13,4.95,1.71.1.2.18.42.24.63.32,1.43.18,2.92-.39,4.26-.62,1.83-1.78,3.43-3.33,4.59-1.83,1.2-3.92,1.96-6.1,2.22" style="fill:#006bb6;"/><path id="Path_1097" d="m628.32,86.91l-8.59,6.26-.69-.94c.53-.46,1.01-.99,1.41-1.57.3-.65-.19-1.74-1.44-3.23-3.4-4.07-7.66-7.33-12.48-9.54-3.6-1.77-7.56-2.67-11.56-2.63-1.66.04-3.29.49-4.74,1.29-1.3.7-2.34,1.79-2.99,3.12-.51,1.11-.68,2.35-.47,3.55.19,1.25.74,2.41,1.57,3.36,1.06,1.19,2.28,2.22,3.64,3.06,1.52.94,4.03,2.32,7.6,4.09,4.93,2.48,8.41,4.38,10.42,5.69,1.76,1.09,3.3,2.49,4.56,4.13,2.7,3.43,3.16,8.12,1.16,12-1.77,3.95-5.37,6.77-9.62,7.56-5.95,1.01-12.07,0-17.39-2.84-3.33-1.49-6.45-3.41-9.27-5.72-3.01-2.66-5.72-5.63-8.11-8.87-.46-.6-.99-1.15-1.57-1.64-.34-.15-1.03,0-2.09.47l-.61-.94,8.7-5.92.67.94c-.56.4-1.05.89-1.44,1.46-.32.71.56,2.43,2.67,5.16,1.73,2.29,3.71,4.37,5.92,6.2,2.2,1.73,4.61,3.2,7.15,4.37,4.33,2.39,9.38,3.17,14.23,2.2,2.42-.55,4.45-2.18,5.51-4.43,1.36-2.91.51-6.37-2.05-8.31-.88-.85-1.87-1.59-2.93-2.2-1.06-.63-4.18-2.25-9.34-4.87-2.92-1.44-5.73-3.1-8.41-4.96-1.82-1.28-3.42-2.85-4.72-4.65-1.14-1.57-1.82-3.43-1.98-5.36-.17-1.97.18-3.96,1.03-5.75,1.41-3.1,4.06-5.46,7.3-6.5,2.93-.87,6.03-1.06,9.04-.54,3.72.55,7.34,1.65,10.74,3.28,2.8,1.28,5.45,2.87,7.9,4.74,2.63,2.13,5.06,4.5,7.25,7.08.32.41.7.78,1.12,1.08.39.19,1.14,0,2.22-.56l.69.86Z" style="fill:#006bb6;"/></g></g></g></g></svg>